/* XPM */
static char *_b9ba6ce3306494cb06798465ffd27752si24zqpdwmaoJwO[] = {
/* columns rows colors chars-per-pixel */
"70 70 254 2 ",
"   c #121100",
".  c #2A0700",
"X  c #340400",
"o  c #3C0200",
"O  c #370C00",
"+  c #291700",
"@  c #371801",
"#  c #371C15",
"$  c #192501",
"%  c #143303",
"&  c #282504",
"*  c #372601",
"=  c #333312",
"-  c #440201",
";  c #4B0202",
":  c #440D01",
">  c #490905",
",  c #520100",
"<  c #590803",
"1  c #491606",
"2  c #561705",
"3  c #5D0A13",
"4  c #591913",
"5  c #481812",
"6  c #660903",
"7  c #661708",
"8  c #7A1B08",
"9  c #671A17",
"0  c #761719",
"q  c #71060D",
"w  c #4A2504",
"e  c #572708",
"r  c #492413",
"t  c #582716",
"y  c #513913",
"u  c #652917",
"i  c #772617",
"p  c #65361B",
"a  c #753618",
"s  c #6E2809",
"d  c #752928",
"f  c #683927",
"g  c #773726",
"h  c #723130",
"j  c #622A28",
"k  c #34480E",
"l  c #395A26",
"z  c #4D4A16",
"x  c #71441A",
"c  c #544D27",
"v  c #684727",
"b  c #784629",
"n  c #784B36",
"m  c #7B5638",
"M  c #6D5430",
"N  c #556D31",
"B  c #6C7232",
"V  c #5B711E",
"C  c #56744A",
"Z  c #726B43",
"A  c #881414",
"S  c #8B3017",
"D  c #A6351C",
"F  c #8E1D25",
"G  c #892929",
"H  c #8A362A",
"J  c #973726",
"K  c #9A2A33",
"L  c #973637",
"P  c #902F32",
"I  c #A82737",
"U  c #B42D37",
"Y  c #A8383B",
"T  c #BB3735",
"R  c #AC2E29",
"E  c #A5131A",
"W  c #C63A37",
"Q  c #D02D30",
"!  c #9C4928",
"~  c #88473A",
"^  c #994738",
"/  c #895939",
"(  c #97593B",
")  c #8B502A",
"_  c #A54828",
"`  c #A85539",
"'  c #B5583A",
"]  c #AE4B34",
"[  c #91673D",
"{  c #974517",
"}  c #C5483A",
"|  c #D4563E",
" . c #D44C3C",
".. c #A73642",
"X. c #BA3844",
"o. c #B12E40",
"O. c #9F3541",
"+. c #C73B43",
"@. c #885C46",
"#. c #985746",
"$. c #9B4D4C",
"%. c #B74948",
"&. c #A65747",
"*. c #B55748",
"=. c #A94C4B",
"-. c #8A6546",
";. c #976548",
":. c #95754A",
">. c #996A54",
",. c #987855",
"<. c #8B7153",
"1. c #A76948",
"2. c #B76649",
"3. c #A9764A",
"4. c #A96954",
"5. c #B66856",
"6. c #A67858",
"7. c #B97759",
"8. c #A97A64",
"9. c #B67766",
"0. c #BD7B74",
"q. c #977961",
"w. c #C54747",
"e. c #C95A48",
"r. c #D65748",
"t. c #DB5A56",
"y. c #CE5251",
"u. c #E6594B",
"i. c #E75C56",
"p. c #C66746",
"a. c #D86246",
"s. c #C87759",
"d. c #D77657",
"f. c #D06A53",
"g. c #E16559",
"h. c #E8765B",
"j. c #E96F51",
"k. c #D55962",
"l. c #C67B64",
"z. c #D67A67",
"x. c #D1706E",
"c. c #EB7B69",
"v. c #F87769",
"b. c #EC7570",
"n. c #6A912F",
"m. c #72944E",
"M. c #9B8358",
"N. c #889558",
"B. c #B08659",
"V. c #88A758",
"C. c #999169",
"Z. c #A78766",
"A. c #B98865",
"S. c #B69875",
"D. c #B5916F",
"F. c #94B06E",
"G. c #B8A474",
"H. c #DA845A",
"J. c #D18859",
"K. c #E88858",
"L. c #EFAA5D",
"P. c #D88866",
"I. c #C88678",
"U. c #D78676",
"Y. c #C79978",
"T. c #DB967B",
"R. c #CC8F68",
"E. c #E58A68",
"W. c #E69868",
"Q. c #F8996A",
"!. c #E88B76",
"~. c #F98574",
"^. c #F19573",
"/. c #C5A578",
"(. c #D6A678",
"). c #EBAA6A",
"_. c #F9A86A",
"`. c #ECB366",
"'. c #FCB36D",
"]. c #F8B86A",
"[. c #E9AB7A",
"{. c #FDAD74",
"}. c #FBAB79",
"|. c #E9B77A",
" X c #F4B374",
".X c #FDB373",
"XX c #FDBB73",
"oX c #FCBB7C",
"OX c #F6B77A",
"+X c #97C86B",
"@X c #A6CA73",
"#X c #A9DB6C",
"$X c #FCC178",
"%X c #F57B88",
"&X c #AF9A85",
"*X c #BDB18D",
"=X c #D79C87",
"-X c #C98C83",
";X c #F99A88",
":X c #EF978B",
">X c #C9A785",
",X c #CBB48B",
"<X c #D5B689",
"1X c #D9B894",
"2X c #D5A58C",
"3X c #E8AA86",
"4X c #FBA988",
"5X c #E7B687",
"6X c #F9B886",
"7X c #FDA794",
"8X c #E9B996",
"9X c #F8B995",
"0X c #E7AA96",
"qX c #E8B5A3",
"wX c #F1B2A8",
"eX c #B6D187",
"rX c #BBE593",
"tX c #DCC599",
"yX c #C8CC98",
"uX c #E8C28A",
"iX c #F9C58B",
"pX c #E8C89A",
"aX c #FAC799",
"sX c #EBD49E",
"dX c #F5D696",
"fX c #F6DA96",
"gX c #F4D69C",
"hX c #FBD69C",
"jX c #F6DA9B",
"kX c #F9DB9D",
"lX c #FBDA95",
"zX c #FAE09D",
"xX c #DDC4A1",
"cX c #E9CBA5",
"vX c #F6C8A4",
"bX c #ECD4A3",
"nX c #EED9A3",
"mX c #EAD5AA",
"MX c #F3D6A3",
"NX c #F5DCA3",
"BX c #FADBA2",
"VX c #F5DCAB",
"CX c #FBDCAB",
"ZX c #F8D5A6",
"AX c #FEC8B5",
"SX c #FCD8B5",
"DX c #EDCDB3",
"FX c #FBE1A3",
"GX c #F7E1A4",
"HX c #FAE3B6",
"JX c #D2E89D",
"KX c #FEDBC2",
"LX c #FFE8C5",
"PX c #FFF3CF",
/* pixels */
"BXBXBXBXBXBXBXkXkXkXBXBXBXBXBXBXkXkXkXkXBXBXBXBXBXBXBXBXBXkXkXkXkXkXkXjXjXjXfXfXjXjXjXjXkXkXkXkXkXkXkXkXkXkXhXhXBXBXBXBXBXBXBXBXBXkXkXkXkXkX",
"BXBXBXBXBXBXBXkXkXkXkXkXBXBXkXkXkXkXkXkXBXBXBXBXBXBXBXBXkXkXkXkXkXkXkXkXjXjXjXfXjXjXjXjXkXkXkXkXkXkXkXkXkXkXhXhXhXkXBXBXBXBXBXBXBXkXkXkXkXkX",
"BXBXBXBXBXBXBXkXkXkXkXkXkXkXkXkXjXkXkXkXkXkXkXkXkXkXkXkXkXjXkXkXkXBXkXkXkXjXjXjXjXjXjXkXkXkXkXkXkXjXkXjXkXjXjXjXjXjXjXjXjXjXjXkXkXkXkXkXkXkX",
"BXBXBXBXBXBXBXkXkXkXkXkXkXkXkXkXjXjXkXkXkXkXjXjXjXjXjXjXjXjXjXjXkXkXkXkXkXkXkXkXkXkXkXkXkXkXkXkXkXjXjXjXjXjXjXjXjXjXjXjXjXjXjXjXjXkXkXkXkXkX",
"BXBXBXBXBXBXBXkXkXkXkXkXkXkXkXkXkXkXkXkXkXjXjXjXjXjXjXjXjXjXjXjXkXkXkXkXkXkXkXkXkXkXkXkXkXkXkXkXkXkXkXkXkXjXjXjXjXjXjXjXfXfXfXjXjXkXkXkXkXkX",
"BXBXBXBXBXBXBXkXkXkXkXkXkXkXBXBXkXkXkXkXkXkXkXjXkXjXkXkXkXkXkXkXkXkXkXkXkXkXBXBXBXBXkXkXkXkXkXkXkXkXkXkXkXkXkXkXjXjXjXjXjXjXjXjXkXkXkXkXkXkX",
"kXkXkXkXkXkXkXkXkXkXkXkXkXkXkXBXBXBXBXBXBXkXkXjXkXkXkXkXBXkXkXkXkXkXkXkXkXkXBXBXBXBXkXkXkXkXkXkXkXkXkXkXBXBXBXkXkXkXkXkXkXkXkXkXkXkXkXkXkXkX",
"kXkXkXkXkXkXkXkXkXkXkXkXkXkXkXBXBXBXBXBXBXkXkXjXkXkXkXkXkXkXBXkXjXkXkXkXkXkXkXkXBXkXkXkXkXjXjXjXkXkXkXkXkXBXBXBXBXBXBXBXBXBXkXkXkXkXkXkXkXkX",
"kXkXkXkXkXkXkXkXkXkXkXkXkXkXkXkXkXkXkXkXkXkXkXkXjXFXjXjXkXjXBXjXjXjXkXkXkXkXjXkXBXkXkXkXkXjXjXjXjXjXkXkXkXkXkXBXkXkXBXBXBXBXBXBXkXkXkXkXkXkX",
"kXkXkXkXkXkXkXkXkXkXkXkXkXkXkXkXkXkXjXkXkXkXjXjXjXjXkXkXjXkXkXjXjXjXjXjXkXjXjXkXgXkXkXjXfXjXkXkXjXjXjXkXkXkXkXkXBXBXBXkXgXgXgXkXkXkXkXkXkXkX",
"kXkXkXkXkXkXkXkXkXkXkXkXkXkXkXjXkXdXdXkXkXkXjXFXFXjXjXjXjXjXdXjXjXjXjXjXjXkXkXjXkXkXkXjXjXjXjXdXdXdXfXfXjXjXjXjXjXjXgXkXhXkXhXjXkXkXkXkXkXkX",
"kXkXkXkXkXkXkXkXkXkXkXkXkXkXkXjXdXkXkXjXjXBXNXjXgXFXjXjXFXkXjXjXjXjXkXjXfXjXjXjXjXdXdXjXkXjXjXjXjXjXjXjXjXjXjXkXkXkXjXdXjXjXjXdXjXkXkXkXkXkX",
"kXkXkXkXkXkXkXkXkXjXkXkXjXkXkXkXjXjXkXgXsXpXsXMXbXbXMXMXgXNXjXNXjXNXNXjXjXjXkXkXjXkXkXkXjXjXNXNXBXjXjXNXNXgXjXNXgXjXkXkXkXkXkXkXjXkXkXkXkXkX",
"kXkXkXkXkXkXkXkXkXkXkXkXkXkXkXkXjXkXgXBXpXG.S.D./.M./.tXtXbXsXNXNXNXNXNXjXjXjXjXjXkXjXgXgXBXNXNXNXNXNXVXVXVXNXNXNXNXjXgXjXjXjXfXjXkXkXkXkXkX",
"kXkXkXkXkXkXkXkXkXkXkXkXkXkXkXkXBXMX<XbXHXLXxXZ.Z.S.S.M.,.,XbXpXVXMXMXNXBXBXkXkXkXjXkXCXNXsXpXsXtXtXtXtXtXbXbXbXsXnXNXNXjXkXkXjXkXkXkXkXkXkX",
"kXkXkXkXkXkXkXkXkXkXkXkXkXkXkXkXBXgX/.pXcXAXKXKXKXKXcX1XZ.m ,./.D.D.G.(.uXpXgXBXBXMXCXVX<XM.:.M.:.,.<.-.<.Z.Z.Z.M M.<XNXBXjXjXkXkXkXkXkXkXjX",
"kXkXkXkXkXkXkXkXkXkXkXkXkXkXjXjXBXpXB.(.7.&.9.3X0X8X9X=X8.p 1 w x ) :.3.[ 3.A./.1XcXDXS.,.1XCXCXbXSXcXSXDX8.b / 6.m / bXNXjXgXgXkXkXjXkXkXkX",
"kXkXkXkXkXkXkXkXkXkXkXkXkXkXjXjXkXhX(.T.i 6 < i 1.9.4.a b n 6.5X5X5X6X|.[.(.R.A./ v p <.DXSX8X(.8X8XqXqXqXqX0X9X3Xb -.sXjXkXBXBXkXjXkXkXkXkX",
"kXkXkXkXkXkXkXkXkXkXkXkXkXkXkXjXgXhXaX3X^ L g - : u b ;.8XMXuXiX6XOXoXoX6X6XOX[.[.1.1.vXaX3X3XR.6.@.>.4.$.$.&.R.7.@ :.bXjXjXgXgXkXkXkXkXkXkX",
"kXkXkXkXkXkXkXkXkXkXkXkXkXkXkXkXkXCXvXl.*.$.9 : @.>XvXcXLXPXZX5XOX X{._.{. X X X).6X[.[.6XT.P.2.1 o - ; 6 7 H 5.b e G.VXjXkXkXBXkXkXkXkXkXkX",
"kXkXkXkXkXkXkXkXkXkXkXkXkXkXkXjXjXgXaX1.^ g e 8.pX8XvXLXPXPXSXaXOX.X.X.X.XXX'.'.XXXX6X).W.P._ 6 - - ; 3 L %.!.U.u 6.cXNXjXkXkXkXkXkXkXkXkXkX",
"kXkXkXkXkXkXkXkXkXkXkXkXkXkXkXjXNXBX9XR.a 2 Y.vX5XpXHXPXLXPXSX3XOX.X.X.X.X.X'.'.'.L.'..XH.p.S 8 9 ; , P w.y.7X5.: >XZXMXBXkXgXjXkXkXkXkXkXkX",
"kXkXkXkXkXkXkXkXkXkXkXkXkXkXkXkXGXgX9XT.7 4.vXvX5X5XpXHXCXgXiX6XoXoXoXOX X X.XXX`.XXXX_.}.d.' *.$.0 , 0 R %.;X4.O 1XVXjXBXjXkXkXkXkXkXkXkXkX",
"kXkXkXkXkXkXkXkXkXkXkXkXkXkXkXkXNXBX(.( 1.AX8X5XhXaX|.|.|.uX|.oXOXOXoXoXoXoX.X].].XXL.XX}.E.f.*.%.P 6 6 D e.;X4.@ ,XNXjXgXkXkXjXkXkXkXkXkXkX",
"kXkXkXkXkXkXkXkXkXkXkXkXkXkXkXkXNXgXB.x 8XvXaX5XlX$XXXOX|.$XXX].$X XoXoX X XXX].$X].].XX}.4Xd.f.y.Y G J p.4X0X;.@ tXBXkXjXjXkXjXkXkXkXkXkXkX",
"kXkXkXkXkXkXkXkXkXkXkXkXkXkXkXkXBXNXG.<XaX5X|.|.`.XX.X'.oXOX`.$X`.$X X X$XXX`.$X`.].$XXX{.6XE.f.g.w.c.4X4X4X;.e M.nXjXjXjXkXjXjXkXkXkXkXkXkX",
"kXkXkXkXkXkXkXkXkXkXkXkXkXkXkXBXgXpX/.BXuX5X6XOX`.XX_._.oXoX).`.].].].].'.XXXX].XXXX'..X_.{.Q.h.r.g.^.4XP.) e :.bXGXfXjXkXBXjXjXkXkXkXkXkXkX",
"kXkXkXkXkXkXkXkXkXkXkXkXkXkXkXBXCXpXuXpX8X5X5X6XOXXX{.{.}.OXoX XXXL.].XX`.].XX]. XOX).oX.X{.{.j.| g.] J a 2 [ pXNXjXjXjXkXkXjXjXkXkXkXkXkXkX",
"kXkXkXkXkXkXkXkXkXkXkXkXkXkXkXBXgXpXCX8XY.;./ 3.5X6X6XOXOXOXoX`.`.'.].].XX].).oX6X9X6X6X6X{..Xj.a.r.D A < 2 <XmXsXjXkXjXkXgXkXjXjXkXkXkXkXkX",
"kXkXkXkXkXkXkXkXkXkXkXkXkXkXkXkXBXpXZXY.b X . O 6.8X9X5X9X5X|.$XoXXX'.`.XX$XOX[.A.6.4.T.9X}..XK.| r.i.} i : Z.VXgXFXjXjXBXjXjXjXjXjXkXkXkXkX",
"kXkXkXkXkXkXkXkXkXkXkXkXkXkXkXgXuX5X5X;.: X r . . ;.#.p p b 3.[.6X XoX X XiX(.( : X : #.3X6X XK.| | i.g.=.> v mXNXjXhXhXBXkXjXjXjXkXkXkXkXkX",
"kXkXkXkXkXkXkXkXkXjXkXkXkXkXjXgX[ /.8Xa : >.>Xv O @.9.9.9.6.1.a 7.3X6X|.6X5X( X . . . : 4.5X6XH.| r.r.t.=.9 m mXBXdXhXBXhXkXfXjXjXkXkXkXkXkX",
"BXkXkXjXhXjXhXjXkXjXFXjXjXjXCXgX6.pXaXB.3.aX>Xv >.qX7X7X7X4XaX3.2 1.9X5X8XA.O X p b 1 X 2 T.4XE.r.t.r.t.%.H @.mXBXkXhXhXkXjXjXjXjXkXkXjXkXkX",
"NXkXkXjXhXjXhXjXkXjXjXjXjXNXgXBXSXCXZXhXiXR.) ;.=X0.z.c.~.d.R.3X7.2 1.9X9Xb : / 8X5XA.2 > T.4Xd.r.u.i.g.%.L n 8XZXkXhXjXjXjXjXjXkXkXjXjXkXkX",
"jXkXkXkXhXkXhXkXjXFXjXjXkXBXgXBXgXpXBXhX6Xx ) =X;.7 ] c.c.J u 9.U.! s P.9XJ.1.5X5X5XiXB.1.4X}.' | r.t.r.w.L e D.ZXkXhXhXkXkXjXjXkXkXkXkXkXkX",
"kXkXBXkXBXBXBXkXjXkXkXkXkXBXBXhX|.uX|.|.T.) s.7.6 , ] ~.b.A ; g U.p.6 ' 4X4X[.6X6XiXiXiXOX}.{.p.r.u.r.t.y.^ 2 Z.ZXkXhXhXkXkXkXjXkXkXkXkXkXkX",
"kXkXBXBXBXBXBXBXBXjXkXjXgXkXBXiX|.6X XW.P.S *.k.6 q } c.h.F , 7 x.e.6 J E.E.W. XOXiXlXiXlX.X_.a.| u. .t.y.L u Z.ZXBXhXhXhXkXBXkXkXjXjXkXkXkX",
"jXkXBXBXBXBXBXBXBXjXjXkXkXBXpXiX6X X}.H.!.J K b.y.T h.v.v.t.Y %.b.y.q J J ' W.oX XOXoX).XX{.Q.Q.a.| T W +.L t <.MXNXhXhXhXkXkXkXkXkXkXkXkXkX",
"jXkXkXBXBXBXBXkXkXjXjXkXCXgXA.5X6X6X^.p.E.!.A y.v.g.v.h.v.v.b.%X:XP 3 P 6 s ).OX6XOXoX.X.X_.W.h.j.u.W W X...4 -.MXNXhXhXhXkXkXjXkXkXkXkXkXkX",
"kXkXkXkXBXkXkXjXjXjXjXkXCXpXm =X6X6XK._ H.4XJ A ] y.e.e.r.w.k.k.=.3 3 d < S  XoXOX6X XoX'._.4Xh.| u.i.+.U L 1 q.mXNXkXjXjXkXjXjXkXkXkXkXkXkX",
"BXjXkXkXkXjXjXjXfXjXjXBXZXpXf >.4X4XK.{ W.6X3XH 6 i i H S 0 G 0 3 o > - 7 T.6XoXOX6XoX.X'..XQ.d.} W W U o.d 5 &XmXnXBXkXdXjXfXjXjXjXjXjXkXkX",
"kXkXkXkXjXfXjXlXjXkXgXCXSXcXm 1 R.7Xh.{ K.OXaX:X7 , < o ; < < < > 5 - - 4.6X XoXoX X X.X.X{.E.a.W +.U I ..3 5 *XmXsXgXjXBXjXFXjXjXkXkXkXkXkX",
"BXkXBXkXfXfXzXjXjXFXNXnXcX,Xq.O g 7Xc.D W.iX9XR.7 ^ &.< < i P ^ d X o ~ 0XiX XXXXX'..X.X_.Q.d.| T +.I K P > c &XyXVXnXNXNXjXfXfXjXkXkXkXkXkX",
"BXkXkXkXjXjXjXjXjXNXVXbXG.z & + 1 x.e.D E.6XP.2.U.:X*.*.!.z.x.L 2 - ~ R.P.W..XXXXX.X.X_.K.j.a.} w.U K L 9 . = = Z *XmXVXNXBXjXfXjXkXkXkXkXkX",
"CXkXkXkXjXfXjXkXGXnX,XM.y z Z + X G ] R f.;Xf.*.7X~.%.;X7Xc.g.8 , &.:Xs.p.H.}.{.{._.Q.K.a.r.} } X.K G d O + $   $ z G.cXVXMXkXjXkXkXkXkXkXkX",
"BXkXkXkXjXkXBXCXMXS.z * c B z z + > F R Y c.%.J b.v.r.~.~.v.y.q G ;X7Xd.p.d.}.Q.Q.K.j.r.w.w.W U I K 9 O + c C C l $ & M ,XVXCXkXkXkXkXkXkXkX",
"BXBXBXkXjXBXNXpXS.z Z z z N.N.F.N . < F A %.G F t.v.v.v.g.g.X.A K ;X;Xh.R } v.v.j.| } } +.X.U I I P > . + l C F.F.= = y c ,XBXBXkXkXkXkXkXkX",
"BXBXkXjXjXNXpX,Xv ,.<.z C.yX@Xm.C = 4 G 0 =.G 6 } i.u.u.i.y.X.q F k.g.r.R T i.i.r.W T +.X.I I I F 3 .   $ % l C C c * M y v 5XBXkXkXkXkXkXkX",
"kXlXkXBXNXnX>XM :.Z.y z C.N.N N k & O h 3 P d , 8 W W Q +.I q q I y.w.T E T w.w.T w.X.K o.I F G ; X . z l % % % = # . p / x / pXBXkXkXkXkXkX",
"kXjXkXgXnXcXS.M B.6.w @ w = = $   + r : o 4 5 4 6 F U E A 6 3 0 %.U w.F F U y.%.X...Y K L G q ; o . c N.+XF.V $   O > a 3.[ p 1XMXkXkXkXkXkX",
"dXkXkXMXsXtXZ.m Y.[ b w O @   = Z ,X1Xn O @ + O ; F o.A q d h 4 G ..=.F Y 0 K Y Y F 0 0 0 3 < ; X + N F.+X#X+Xz @ b 1.) 1.R.v <XgXjXkXkXkXkX",
"jXjXBXNXtXxXZ.<.2X1.1.( b t 5 &XKXSXqXy = m.N.c X d x.O.3 1 O . h 9 < < < , 3 6 9 9 P $.d - 9 0.8.* & V n.n.V.B w a ` _ J.(.v ,XgXgXkXkXkXkX",
"zXkXNXnXtXcXD.@.0X4.2.;X` i I.AXwX-XM M F.rX@XB w 7.U.L O y * + O o h 0.$.4 ; - > 9.AXwXI.>.~ A.2X2Xc $ k l c y 1 ; 8 ! J.B.v <XgXgXkXkXkXkX",
"kXkXjXgXpXmXD.t 9.0X` S 8 6 ^ U.0.n z eXrX+Xm.k + 4.4.2 v F.N.k . t 2XqXqX0X~ - b AXAXg g =X6.g u A.>Xr   & + . < 8 _ p.s.) p 1XgXjXkXkXkXkX",
"kXkXjXjXsXnX>Xp n =Xz.] ] _ 6 7 e + c V.m.l k = @ t @.t G.JX@Xn.+ f qX>.g 2X8X2 u 0X8Xb #.SXA.2 $.-XI.u O : 2 i J ] d.E.7.e v tXMXkXkXkXkXkX",
"BXkXfXjXjXNXpX,.f ~ 5.:X!.d.' S a e * k k % $ + 5 > : @ N.eX@XV * r 8.I.9.=X0Xu > #.=X0X8X9X~ < 9 P 7 < &.5.*.z.d.K.E.' a e Z.mXNXkXkXjXkXkX",
"BXBXhXjXzXzXnXcX-.f g &.z.P.E.W.s.( e . . . . 1 x.$.1 . k V.V.z . o 2 #.0XwX4.2 , 2 i ~ &.~ 2 , 6 8 8 S J ] z.^.E.d.` a a 6.1XVXNXkXkXkXkXkX",
"BXBXkXlXlXzXNXNXpXZ.a 7 a ( 2.s.z.U.l.#.g f d P =.P a w & k z * : < < 2 i i i 7 S s 7 < 6 < 6 i ] p.f.H.E.s.s.` ! S a b A.pXCXgXjXkXkXkXkXkX",
"BXBXhXkXjXjXNXGXMXZX(./ e e p g 2 ^ l.I.T.T.!.!.p.D ' ( p w 2 2 S ! ! S 8 S J ] 2.` ] _ p.s.f.*.*.!.l.7.&.g ~ u 2 u -.>XZXZXdXzXjXkXkXkXkXkX",
"BXhXkXkXjXjXjXNXNXNXMXgX2X6.n r : 2 u g #.5.5.2.d._ s.R.R.B.l.l.P.P.E.E.E.E.E.H.P.P.E.P.^.E.p.! i &.g u 2 : f f @.S.pXZXBXCXkXfXjXkXkXkXkXkX",
"BXhXhXhXhXkXjXNXGXFXBXCXZXZXxXS.m v t t f h u 4 ^ 9 ^ ( -./ #.&.#.&.&.&.&.&.` ` &.` ^ ^ &.^ 7 7 1 h r r f m S.1XpXNXBXjXNXkXjXzXjXkXkXkXkXkX",
"BXkXjXkXkXkXBXNXjXjXdXkXCXZXVXSXcX,XZ.<.@.n f t u : t 1 w w u 7 u g g d i i g H g a e u g g 4 u @.<.,.S.1XbXZXBXBXjXjXjXjXjXfXjXjXkXkXkXkXkX",
"zXjXjXkXhXhXBXBXjXBXkXdXlXkXjXNXCXCXZXMXgXuX/.Z.>.@.m n M v v f b n m / -.[ / / [ :.,.:.,.D./.pXMXnXMXBXCXBXjXjXjXjXjXFXBXkXkXkXkXkXkXkXkXkX",
"GXjXjXkXhXkXBXBXFXdXkXkXfXlXlXjXjXBXBXkXkXFXNXsXbXpX1XtXxXtX1XpXpXcXbXbXMXMXMXZXMXMXNXnXNXNXnXGXGXjXkXkXhXkXjXjXjXkXkXjXgXBXBXhXkXkXkXkXkXkX",
"kXkXkXkXkXkXkXkXkXkXjXjXjXjXjXjXkXkXkXkXkXkXkXkXBXBXBXBXMXNXNXBXBXBXBXBXBXBXBXBXBXBXBXNXBXBXBXkXkXjXkXkXkXkXkXkXkXkXkXkXkXkXkXkXkXkXkXkXkXkX",
"kXkXkXkXkXkXkXkXkXkXkXkXkXkXkXkXkXkXkXkXkXkXkXkXkXkXkXkXkXkXkXkXkXkXkXkXkXkXkXkXkXkXkXkXkXkXkXkXkXkXkXkXkXkXkXkXkXkXkXkXkXkXkXkXkXkXkXkXkXkX",
"kXkXkXkXkXkXkXkXkXkXkXkXkXkXkXkXkXkXkXkXkXkXkXkXkXkXkXkXkXkXkXkXkXkXkXkXjXjXjXkXkXkXkXkXkXkXkXkXkXkXkXkXkXkXkXkXkXkXkXkXkXkXkXkXkXkXkXkXkXkX",
"kXkXkXkXkXkXkXkXkXkXkXkXkXkXkXkXkXkXkXkXkXkXkXkXkXkXkXkXkXkXkXkXkXkXjXjXjXjXjXjXkXkXkXkXkXkXkXkXkXkXkXkXkXkXkXkXkXkXkXkXkXkXkXkXkXkXkXkXkXkX",
"kXkXkXkXkXkXkXkXkXkXkXkXkXkXkXkXkXkXkXkXkXkXkXkXkXkXkXkXkXkXkXkXkXkXkXkXkXkXkXkXkXkXkXkXkXkXkXkXkXkXkXkXkXkXkXkXkXkXkXkXkXkXkXkXkXjXkXkXkXkX",
"kXkXkXkXkXkXkXkXkXkXkXkXkXkXkXkXkXkXkXkXkXkXkXkXkXkXkXkXkXkXkXkXkXkXkXkXkXkXkXkXkXkXkXkXkXkXkXkXkXkXkXkXkXkXkXkXkXkXkXkXkXkXkXkXkXkXkXkXkXkX"
};
