/* XPM */
static char *_0431_70dd389e41f4b94ec77a7dcac325131ef46d1c48473db0f7c13bdbfe2422f9a7[] = {
/* columns rows colors chars-per-pixel */
"32 32 15 1 ",
"  c #2E3338",
". c #32383D",
"X c #384247",
"o c #445257",
"O c #4C6163",
"+ c #706866",
"@ c #776D6A",
"# c #7D716E",
"$ c #807471",
"% c #877B76",
"& c #8A7F7D",
"* c #8F8381",
"= c #AFA18F",
"- c #BAAE9B",
"; c None",
/* pixels */
";;;;XXXXXXXXXXXXXXXXXXXXXXXXX;;;",
";;;XoOOOoOoooOOOOoOooooOOOoooX;;",
";;;.XXXXXXXXXXXXXXXXXXXXXXXXX.;;",
";;; .                       . ;;",
";;; . ;; ;;; ;;; ;;; ;;; ;; . ;;",
";;; . ;; ;;; ;;; ;;; ;;; ;; . ;;",
";;; . ;; ;;; ;;; ;;; ;;; ;; . ;;",
";;; . ;; ;@@@@@@@@@@@@@; ;; . ;;",
";;; . ;; @%%%%%%%%%%%%%@ ;; . ;;",
";;; .    @%$$$$$$$$$$$%@    . ;;",
";;;.X.===@$$$$$$$$$$$$$@===.X.;;",
";;;.X.=--@@$$$$$$$$$$$@@--=.X.;;",
";;;.X.=--+@@@@@@@@@@@@@+--=.X.;;",
";;;.X.=$$$$$$$$$$$$$$$$$$$=.X.;;",
";;;.X.$*&*&*&*&*&*&*&*&*&*$.X.;;",
";;;.X.$*&*&*&*&*&*&*&*&*&*$.X.;;",
";;;.X.$*&*&*&*&*&*&*&*&*&*$.X.;;",
";;;.X.$*&*&*&*&*&*&*&*&*&*$.X.;;",
";;;.X.$###################$.X.;;",
";;;.X.@$$$$$$$$$$$$$$$$$$$@.X.;;",
";;;.X.@$$$$$$$$$$$$$$$$$$$@.X.;;",
";;;.X.@$$$$$$$$$$$$$$$$$$$@.X.;;",
";;;...@$$$$$$$$$$$$$$$$$$$@...;;",
";;;.XXXXXXXXXXXXXXXXXXXXXXXXX.;;",
";;;XoOOOoOoooOOOOOoOooOOOooooX;;",
";;;.XXXXXXXXXXXXXXXXXXXXXXXXX.;;",
";;; .                       . ;;",
";;; . @@ @@@ @@@ @@@ @@@ @@ . ;;",
";;; . @@ @@@ @@@ @@@ @@@ @@ . ;;",
";;; .                       . ;;",
";;; .                       . ;;",
";;; . ;;;;;;;;;;;;;;;;;;;;; . ;;"
};
