/* XPM */
static char *_0335cea44cc42aabf172b46de04de54VTTpC5caHF8W4m3h[] = {
/* columns rows colors chars-per-pixel */
"70 70 256 2 ",
"   c #1D010D",
".  c #1D0216",
"X  c #270209",
"o  c #330102",
"O  c #390608",
"+  c #3B1509",
"@  c #270418",
"#  c #370917",
"$  c #3A1415",
"%  c #2B141C",
"&  c #3C2014",
"*  c #280924",
"=  c #370B25",
"-  c #351729",
";  c #321430",
":  c #3B2930",
">  c #460809",
",  c #53080A",
"<  c #4A140B",
"1  c #480814",
"2  c #560B17",
"3  c #481516",
"4  c #5A131B",
"5  c #561818",
"6  c #53130D",
"7  c #65171B",
"8  c #72171C",
"9  c #492418",
"0  c #58241C",
"q  c #512D14",
"w  c #66291C",
"e  c #6D341E",
"r  c #480D27",
"t  c #471527",
"y  c #581726",
"u  c #481836",
"i  c #571735",
"p  c #510E2D",
"a  c #661927",
"s  c #6A1C32",
"d  c #731C2D",
"f  c #4B2528",
"g  c #592425",
"h  c #5C3527",
"j  c #472835",
"k  c #552735",
"l  c #5A3839",
"z  c #4C3336",
"x  c #682728",
"c  c #76272A",
"v  c #673728",
"b  c #793529",
"n  c #682637",
"m  c #752936",
"M  c #6A3736",
"N  c #7A3737",
"B  c #6F4B34",
"V  c #6C5632",
"C  c #393045",
"Z  c #483B48",
"A  c #51354C",
"S  c #733546",
"D  c #4C4453",
"F  c #574957",
"G  c #5A4B4D",
"H  c #694548",
"J  c #784847",
"K  c #754B54",
"L  c #785658",
"P  c #6C524D",
"I  c #786853",
"U  c #585169",
"Y  c #675964",
"T  c #705867",
"R  c #776768",
"E  c #7B6C78",
"W  c #776F73",
"Q  c #87383A",
"!  c #963939",
"~  c #852E32",
"^  c #A43C38",
"/  c #AA3C2F",
"(  c #85463B",
")  c #98443B",
"_  c #895235",
"`  c #A8453A",
"'  c #B1483B",
"]  c #94683E",
"[  c #863845",
"{  c #973C46",
"}  c #873D56",
"|  c #884847",
" . c #964347",
".. c #865847",
"X. c #95564B",
"o. c #884856",
"O. c #944A55",
"+. c #865857",
"@. c #9A5955",
"#. c #A84946",
"$. c #B24C47",
"%. c #A74C52",
"&. c #A65659",
"*. c #B1524B",
"=. c #896B4C",
"-. c #8A6557",
";. c #976557",
":. c #897358",
">. c #98755B",
",. c #94714B",
"<. c #AC6D53",
"1. c #865A62",
"2. c #935D65",
"3. c #8B6866",
"4. c #966866",
"5. c #9A7968",
"6. c #977678",
"7. c #8A7374",
"8. c #A66A68",
"9. c #B56A66",
"0. c #A67869",
"q. c #B77868",
"w. c #A57A76",
"e. c #B77A75",
"r. c #A86B70",
"t. c #A15764",
"y. c #C7724B",
"u. c #CB714F",
"i. c #C6796F",
"p. c #9C8559",
"a. c #A9845A",
"s. c #9A8571",
"d. c #AA886A",
"f. c #B38769",
"g. c #A88577",
"h. c #B88778",
"j. c #BA9778",
"k. c #B39669",
"l. c #BEA47E",
"z. c #C68879",
"x. c #C6987B",
"c. c #D48F6D",
"v. c #CBA378",
"b. c #DB9265",
"n. c #71718D",
"m. c #767CA3",
"M. c #8A7A87",
"N. c #92798C",
"B. c #AB7981",
"V. c #C37E83",
"C. c #788AAA",
"Z. c #7C8FB4",
"A. c #7B869C",
"S. c #93858D",
"D. c #B88886",
"F. c #B99887",
"G. c #A6999A",
"H. c #AE918D",
"J. c #B5A898",
"K. c #8494B7",
"L. c #8B91AD",
"P. c #A89BA5",
"I. c #AD99AA",
"U. c #ACA2A8",
"Y. c #B4A4A6",
"T. c #B7B0B3",
"R. c #94A7BA",
"E. c #C58C86",
"W. c #C89A84",
"Q. c #D4998B",
"!. c #CD9993",
"~. c #E39C90",
"^. c #CBA687",
"/. c #D4A98A",
"(. c #D7B38C",
"). c #C9A796",
"_. c #D8AB96",
"`. c #D9B697",
"'. c #CFB88C",
"]. c #E6A895",
"[. c #E3BC9C",
"{. c #E5B699",
"}. c #EEB08D",
"|. c #D6A9A4",
" X c #D8B8A9",
".X c #D3BABB",
"XX c #C8B5B1",
"oX c #E7BCA5",
"OX c #F5BBA4",
"+X c #E4B8B6",
"@X c #C19BA4",
"#X c #DEC19A",
"$X c #E6C49C",
"%X c #EDD799",
"&X c #F4D595",
"*X c #F4DA96",
"=X c #FADC96",
"-X c #F4D59C",
";X c #FAD59B",
":X c #F5DB9B",
">X c #FADB9D",
",X c #FAD697",
"<X c #F5C993",
"1X c #F9E19C",
"2X c #DDC8B0",
"3X c #E8C7A7",
"4X c #F6C6A9",
"5X c #ECD5A5",
"6X c #F4D5A2",
"7X c #FCD6A3",
"8X c #F6DBA2",
"9X c #FBDBA2",
"0X c #FCDCAA",
"qX c #F5D7AB",
"wX c #E9CBB5",
"eX c #F9C8B3",
"rX c #FEDDB4",
"tX c #FDDCBB",
"yX c #F9D4B7",
"uX c #E2D1BB",
"iX c #FDE2A4",
"pX c #FDE3AC",
"aX c #F6E2A7",
"sX c #FEE3B3",
"dX c #FEEAB4",
"fX c #FEE3BC",
"gX c #FCE8B9",
"hX c #B1B7C8",
"jX c #93A3C8",
"kX c #CABAC4",
"lX c #D7C9C7",
"zX c #DBD5D7",
"xX c #D4CDCA",
"cX c #E4C8CA",
"vX c #E7D6C8",
"bX c #FAD8C6",
"nX c #E9DAD5",
"mX c #F7D6D1",
"MX c #FCE6C6",
"NX c #EAE7D7",
"BX c #F7E8D9",
"VX c #FAF7DD",
"CX c #F1EECE",
"ZX c #EBE8E7",
"AX c #F9EBE5",
"SX c #FCF5E4",
"DX c #FDFDE4",
"FX c #FDFDEC",
"GX c #F6F6E9",
"HX c #FEF5F3",
"JX c #FEFDF3",
"KX c #FFFCFB",
"LX c #F7FAF5",
"PX c #F6EFF3",
"IX c #D7DCE3",
"UX c #BDC5D0",
/* pixels */
"9X9X9X9X9X9X9X>X>X>X9X9X9X9X9X>X9X9X9X>X>X:X=X=X=X*XiX>X9X9X9X8X:X1X:X*X9X9X%X1X:X:X:X>X9X9X1X:X:X8X>X>X>X>X:X:X:X:X:X:X:X:X>X;X9X9X9X9X9X9X",
"9X9X9X9X9X9X9X>X>X>X>X>X9X9X>X>X9X9X9X>X>X:X:X:X=XiX>X>X9X9X9X8XaX%XpXpXsX6XpX%X1X:X>X;X;X>X:X:X:X:X>X>X>X>X>X:X:X:X:X:X:X:X>X;X;X9X9X9X9X9X",
"9X9X9X9X9X9X9X9X>X>X>X>X>X>X>X9X9X9X>X>X>X>X>X>X;X9X:X>X>X9X:X9X:XpX^...d.fX5XaX:X>X>X;X;X>X>X8X8X>X>X>X>X>X>X>X>X>X>X>X:X>X>X>X>X>X>X>X>X>X",
"9X9X9X9X9X9X9X9X>X>X>X>X>X>X>X>X>X>X>X>X>X9X9X9X9X:X>X>X>XiX-X:XpX/.B F.:.5.sX8X:X;X>X;X;X;X>X>X>X>X>X>X>X>X>X>X>X>X>X>X>X>X>X>X>X>X>X>X>X>X",
"9X9X9X9X9X9X9X9X>X>X>X>X>X>X9X>X=X=X:X9X8X8X9X>X>X>X9X9X-X-XpX0X{.h h  X0.o k.pX9X8X:X9X9X;X>X:X:X>X:X:X>X>X>X>X9X9X8X8X9X9X>X>X>X:X:X:X:X:X",
"9X9X9X9X9X9X>X>X>X>X>X>X>X>X9X>X=X=X:X>X9X9X9X>X>X>X-X9XiX-X0X`.9 w.J x v h.e a.pXaX-X:X;X;X:X=X:X:X:X:X>X>X>X9X8X9X9X8X>X>X:X>X:X:X:X:X:X:X",
">X>X>X>X>X>X>X>X>X>X>X>X>X>X>X>X:X:X:X:X:X:X>X8X8XpX9X*X:X8XsXbXJ k e.Q.~.| 9 ^.sXaX:X:X>X>X:X:X:X:X:X:X>X:X>X>X9X9X>X>X>X>X>X:X:X:X:X:X:X:X",
">X>X>X>X>X>X>X>X>X>X>X>X>X>X>X9X9X9X>X:X:X:X:X:X9X8X8X-XpXpXk.>.3.O 4 | N o =.MX8X%X:X>X9X>X:X=X:X:X:X:X:X:X:X:X9X9X9X>X>X:X:X:X:X:X:X:X:X:X",
">X>X>X>X>X>X>X>X>X>X>X>X>X>X>X9X0X6X9X>X*X>X:X:X1X-XpXqX'.p.p.k.B 3 o # o v 4X0X-XiX:X*X>X;X,X>X:X9X:X:XiX:X:X>X:X>X>X:X>X=X:X:X>X>X:X>X>X>X",
">X>X>X>X>X>X>X>X>X>X>X>X>X:X>X9X8X0X9X:X>X:X:X*X1XpX6Xa.=.`.tX{.e.@.y k f B rX-X9X:X:XiX&X>X;X:X>X:X>X>X*X:X*X:X>X&X:X>X:X&X=X>X:X>X>X>X:X:X",
">X>X>X>X>X>X>X>X>X>X>X>X:X:X>X>X-XiX-X9X&X:X1XiXqX(.,.x.MXoX;.M N O.[ N x v tX6X*X=X*X:X:X-X9X-X;X;X>X>X*XiX:X:X&X>X:X,X>X>X*X&X:X>X9X>X>X>X",
">X>X>X>X>X>X>X>X>X>X>X>X:X:X>X:X1X&X9X:X9XiX-Xv.a.,.yXeXh.M 1 1 1 y d Q ( v rXqX9X=X>X;X<Xv.<X9X;X0X&X>X:X*X*X:X:X:X;X:X9X>X:X9X9X-X:X:X>X>X",
">X>X>X>X>X>X>X>X>X>X>X>X>X>X>X:X*X1X*X9XrX5X>.,.`.fXW.( > 1 a y 1 y 2 x | v rXqX;X;X<Xv.b.<.b.}.7X7X;X9X>X>X:X1X:X-X9X6X-X-X0X-X9X9X9X9X9X:X",
">X>X>X>X>X>X>X>X>X>X>X:X>X>X>X:X&X:XiX0Xa.=.3XyX4XX.6 , m a a a y n y 3 J v tX7X;Xv.b.<.y.u.y.y.b.}.9X;X&X:X:X:X:X:X8X6XsXsXgXgX8X6X-X-X:X>X",
">X>X>X>X>X>X>X>X>X>X>X>X:X-X:X9XsXrX^.a.f.tX3X0.0 1 x x a c ! %.d S S y J h rX7X}.y.y.y.y.y.y.y.<.b.<X<X>X>X>X>X9X8X8XsX$Xl.k.j.5X0XpX9X-X8X",
":X>X>X>X>X>X:X>X9X0X0X0X8X:X9X0Xk.=.,.3XtXF.M < 4 n a a ! #.$.%.[ m y t K l yX,.f.c.u.y.y.u.y.b.c.c._ <.pX:X>X>X>X8XrX#XV V I V V k.$X0X6X:X",
"1X:X>X;X9X9X*X*XfXd.B V $XsXrXk...(.fX{.;.6 6 c a 7 [ #.*.` ` %.x t B.z z l MXq O | z.}.u.u.b.i. .4 o >.sX*XiX:X>X9XyXJ.J.FXDXDX2Xh `.sX-X-X",
"1X1X9X9X-X:X*XdXf.B bXF.q `.d.V rXtXf.0 6 x c 8 c  .%.#.` ` ! N L cXHX.Xj z BXh X O 6 _ ~.~.` 8 > 1 3 g.gX-X5XsXpX'.P 7.VXNXuXNXFXMX=.$X0XiX",
"=X:X8X8X:X:X9X$X..3 g.;.v 5 B yXeX;.> 4 m a 8 ! *.*.#.) ! c 4. XJXJXJXJXnXL |.J y i 1 O S o.> 1 7 c N q.0X5XMXuXs.s.VXvX). XJ.uXvXVXJ.I pX*X",
"=X>X0X0X1X*XpX,.v 8.v N B.y <.yX;.6 a a a { $.$.#.#.) Q @.|.BXFXFXZXGXFXAXvXw.$ 1 S S k # # y O.t. .7 q.sXsX:.I J.FXvXF.).3XBX XJ.vXF.V sX*X",
":X>X0X7X:X%XdXp.o r.~.].o.1 ) i., y 7 ~ #.#.$.#. .O.+.H.BXFXFXFXDXFXFXJXVXBXH.$ j # r S m m { { m y o >.MXp.5.mXBXvXF.5.wXbXbXwXuX).uXF.p.sX",
">X>X7X7X:X:XpX3XB 5 X.m 1 S 9.c 2 x  .#.#.*.) ! x J kXzXGXNXSXFXDXDXJXNXCXBXG.G.nXN.A r 4 9. .a y n x 0.MXI 3.mX X).F.5.).2X XbXXXI mXJ.I gX",
"9X9X>X9X9X8X-XfXg.X > O 2 [ &., c %.#.` #.! b e.@X- U M.P.AXBXCXDXVXBXNXlXU.U hXU.XXKXY.6.f $ y | | 1 w.VX=.B |.|.D.4.4.5.3.3.D.H. XSXF.=.gX",
"9X:X:X>X9X9X8XsX5.+ J 5 a [ a 7  .#.` ) b X.+XAXKXkXC U M.G.NXvXBXnXnXXXM.F D W W nXKXKXJXvX7.f M 2 > 4.BX:.M !.D.w. X2XuXF.+.D.AXSXuXP :.gX",
">X>X>X>X9X8X%XgXs.$ g.g 4 o.> m #.) b ..F.BXHXKXHXHXxXZ Z M.Y.vXcXvXI.F D F U.ZXPXKXKXHXHX.XI.A X S x 0.BX:.g D. XAXJXJXKXXXmXHXmXH.B.H :.gX",
">X>X;X9X>X:X%XdX5.$ !.x 4 S a O.N Q E.bXFXFXKXLXJXGXJXNXD D 7.Y.lX7.D F P.xXKXKXKXKXKXxX7.P Y.cXN.A O w.VX:.3 +XHXFXJXFXHX.XcXJ.9 f 6.P :.MX",
":X>X>X9X:X:X*XdXg.3 Q.c 4 o.y 2..XcXAXBXSXFXJXLXGXFXNXNXkX; Y T.Y : T T.KXKXGXJXHXzX6.G S.NXFXFXJXlXR : nX7.3 r.mXBXFXFXJXcXS.z ).F.l l :.fX",
">X>X:X>X:X1X*XdX5.f ~.x 4 [ i A N.P.xXZXBXDXSXFXGXNXNXXXN.G.S.Y Y S.zXKXKXPXJXZXY.R R XXSXFXVXDXDXJXLXlX7.: t J M g.mXmXAX@Xl O ).!.# $ 5.MX",
">X>X:X1X:X8X*XdX5.3 Q.b 4 | t - Z S.S.xXAXNXDXBXvXnXXXE Z M.Y.Y.xXKXKXLXLXPXT.7.7.kXFXFXDXDXFXFXDXDXFXFXJXJ.X k S m 4.4.@Xf +.| 6 g 4.K :.MX",
"9X>X:X1X>X9X:XdXg.3 Q.v 6 o.  % ; C n.S.lXNXvXvXlXG.Y D F T G.KXJXHXKXPXT.R G U.KXKXFXVXDXVXFXJXDXDXDXDXGXJXxXS.t n m n M 3 y 8.E._.w.O -.MX",
"9X9X:X=X;X;X:XgX5.+ ^.v O j R lXxXF ; M.W .XvXT.E D D S.T.PXKXKXHXHXxXS.R G.AXFXFXSXDXDXFXFXJXJXJXFXDXFXFXGXKXKXPXL < 0 x 1 X k 8.X.y $ ).tX",
"9X9X>X>X;X;X:XgXs.& v.h f Y.HXJXJXzXW Z R lXG.F Z n.T.LXKXKXKXPXzXG.Y M.AXHXFXFXFXDXFXDXDXFXGXJXJXJXFXFXFXFXKXnXH.3._.E.X.x $ X 6 > 1 |.yX0X",
":X>X8X8X9X:X:XgXs.3 x.q R PXNXAXFXJXJXT.G R F F G.PXKXKXJXJXZXT.Y E lXJXFXDXJXFXFXFXFXGXFXGXGXGXKXGXJXGXJXGXP P g.bXeX~.9.&.m 1 4 5 M yXrX9X",
"=X:X8X8X9X:X:XgX6.9 x.q D hXzXZXJXFXFXAXS.E U.PXKXJXJXGXNXlX7.7.xXPXJXDXFXDXFXJXFXFXJXFXDXFXFXFXGXJXJXJXvXI :.wXyX].b w ~ 9.&.7 Q N 0 wX7X;X",
">X=X8X9X>X:X:XsXg.+ Q.v Z C.K.hXIXLXvXs.Y.ZXKXKXJXFXFXvXG.G s.SXFXFXDXFXGXFXFXVXDXGXFXFXFXDXDXDXJXJXlXI :.`.MX/.q.x O 1 O a [ 2  .| + wX8X;X",
";X;X9X>X>X:X>XsXs.9 Q.h Z L.K.Z.R.R.S.nXJXJXKXLXGXBXJ.R S.lXGXFXVXVXDXDXFXFXDXDXDXFXLXJXDXDXFXFXVXXXP F.wX4X<.w > y n i p r } 1 [ | O wX0X-X",
";X;X>X;X>X:X>XfXs.+ /.v - U m.K.Z.n.W AXAXJXGXGXlXR R xXLXLXKXDXDXDXDXFXDXFXDXFXLXLXGXFXFXJXnXJ.:.d.tXeXq.( 1 2 n a 4 y n y o.1 | | + 3X0X&X",
">X>X9X;X:X:X:XsXd.9 /.w f F : U L.A.E cXnXnXnXG.G G.HXFXLXLXGXFXDXDXFXJXFXJXFXJXGXLXGXJXJXvXI 5.MXtXx._ , > s S 4 a { O.m y o.1 | | + 3X0X:X",
"1X:X9X8X:X:X%XgXs.9 W.b N e.e.H Z W M.cXmXnXU.T kXHXSXFXFXFXDXDXDXDXFXHXKXU.P.ZXJXVXFXNXT.R wXbXh.| 5 > n m a 7 Q *.%.%. .4 o.> Q ( + 3X0X>X",
">X8X8X8X:X:X:XdXs.& W.b , c &.!.6.- N..X.XBXS.U T.zXZXAXSXDXDXVXDXFXJXHX7.E 7.R SXFX Xh 5.MXwX;.5 > a m a a ~ #.$.$.#.{ %.7 | > ( | + wX8X>X",
"9X9X8XaX:X:X*XdX5.9 !.x a s s S r.k 7.kXT.xXL.U K.C.hXIXZXSXVXVXFXFXFXvX$ +XmX3 L  Xq j.BX_.J > y n a a c #.*.$.' ` `  .Q 7 O.> [ | + 3X0X9X",
"9X9X8XaX1X:X&XgXg.$ !.M 1 i i n n t M.P.U.P.M.U m.K.Z.L.hXzXNXGXJXJXBXz v 0 w M 3.+ f.MX_.g O n s y c  .*.#.' ` ^ ` ! ! Q y S 1 | Q < yXrX9X",
";X9X9X%X:X9XpX[.l f _.v   * ; u u ; A Z F Y A z F n.Z.Z.C.L.hXIXZXHXAX& 4.f.q.z.N x yXQ.5 y n y c ) $.$.$.#.` ` ^ ! { m p r u X o.| o 4.x.0X",
";X;X:XiXiX&X<.f.H t D.M   ; . * ; ; ; ; * @ k !.6.Z U C.Z.Z.C.R.UXZXZX% v h.Q.( 1 m ].;.> i y ~ $.$.' ' ` ^ ^ ! ! m y r r = * @ S | O !.f.a.",
"aX%XpXpX'.,./.wX6.3 X.x O T F @ * * ; u i p m  .i.z.L G n.Z.K.C.C.jXIXT.# n S # 2 O.i.b , m ) $.' ' ' ^ ^ ^ ! ~ a y t = @ * * = S N # F.oX$X",
"aXdXk.,.k.qX[.).M $ 2.0 X 3.3.L : @ * = u p s d c ) E.D.A A n.L.Z.C.K.P.= t = = S  . .2 c %.$.' ' ` ! ! { ~ 7 y t t @   F 7.* # S M X 6._./.",
"sXd._ x.rXd.`. X+.3 $ # g ..-.5.-.H % . * r r a d d d &.Q.e.l D n.C.K.m.= o.J # m  ., d %.#.` / ^ ^ { Q a t = = = @ t L 1.1.H t O O z 3.wX^.",
"MXB X.Q.4XoX^.oX).-.H H ..;.oXbX|.w.L Z % @ = r p s s c b 9.E.6.D U m.N.$ 8.2.o x Q 2 { %.#.^ ^ ! ! c y t u * . j K 1.D.D.4.+.+.M J g. X^.[.",
"MXv > v X.].eX{.). X Xg.d.^._.{._.).).3.+.k   * ; ; r i s c Q 9.Q.+.A H 3 D.r.o m [ 8 #.{ ! ! ! m y r = = @   A 6.4.-.;.0.>.W.h.^.oX`._.4X`.",
"tXf.B < < x ;.Q.eX/.`.yX[.qX$X/./.bXbXF.F.4.H z . . ; u i a c c ! q.|.+.o D.4.o m Q 8 #.{ ! ~ a t t t @   A L 6.D.F.0.0.x.{.(.$X{./.OXoXh.b ",
"qXsXrX>.B O y [ 9.].OXv.(.[.3XqX`./.f.`.bXF.w.-.H % .   = t p s c d O.V.6 E.4.o c Q a { [ s y r ; @ X l 4.w.w.4.0.g.W._.oXoX[._.{.OXz.| x 2 ",
"iX8X5XgXyX-.3 2 7 Q q.OX4X`./.3X5X`.(.^.W.d.`. Xg.-.H j @ = r r y s m a > D.4.o m Q s n p p # @ = A H 4.4.h.0.5.F._.`.4X{._.oXoXz.( x > y M ",
"9X8XqX0X8XsX(...< 5 4 Q 9.OXoX/.(.qX3X3X(.3XfXtXd.j.5.4.K = * * = i y a < E.2.o c [ # u u = @ - L D.w.4.-.>.x.(.oX3X3X`.`.eXQ.@.y 3 3 .._.yX",
">X9X0X-X>X:XiX6XoXJ 5 , x ( E.oX[.(.#X#X3X3Xx.j.j.tX3X4.w.3.j * * = t 3 O D.4.o y S @ @ @ - K 3.3.+.).g.).3X(.$X$X{._.eX_.;.N 5 > h ).tXrX8X",
">X&X&XiX>X>X;X9X0XrX`.B o > M ( z.eX{.^.oXwX`.yX3X`.oX^.).g.+.L k @ * @ $ D.2.# t # @ % K 6.3.3.!.5.5._.`.3X3X(.(.4X].9.m x O 9 ^.3XrX0X6X8X",
":X1X1X:X:X7X;X9X;X>XsXtXF.J O 5 b X.Q.eXoX_.3X3XwX`.(.yX3Xj.x.0.4.1.:   $ D.2.# @ % z L B.D.w.J h.oX`.3X3X`./.3X{.q.b 7 , > d.3XsX8X8X-X-X9X",
":X>X>X9X9X9X7X9X9X9X9X6XsXfXF.h > 5 N X.].OX]._.#X5X3X$Xj.f._.x.;.5.3.f O D.3.X t +.w.L w.D.-.W._.`.3X$X(.3X4Xe. .a 4 > =./.sX0X-X:X:X>X9X9X",
"1X:X9X9X7X7X7X8X8X:X>X>X&X9XsXyX-.x , 7 b 9.~.4X`.^.3X5X[.{./.^.`.`.D.J > E.1.X J 4.e.4.+.F._.`.3X{._.3XoXh.| 4 4 > ..oX5XdX9X-X:X:X:X>X>X>X",
":X:X>X9X8X8X8X8XaX:X=X1X=X&X7X7XpX6X;.0 1 y c q.OX[./.`.4X3X$X#X^.3XbX+.O o.o.# | X.;._.oX(.3X3X(.{.OXQ.O.x 3 3 v l.sXpX9X-X-X9X:X:X:X:X:X:X",
"=X:X>X8X8X8X8X:X1X1X:X*X:X>X9X;X:X9XrXwXh.y > x ( z.OX{.^.`.3X3X$X`.3X..o o.+.O x e.`.3X[.$X[./.OX~.&.c 1 3 M F.sXaX:X*X:X9XpX8X:X>X>X>X>X>X",
":X:X>X8X8X>X:X:X=X:X:X9X9X7X;X9X8X6X8XpXsX'.=.< 6 w ) z.OX4X^.oX5X3X^.0.9 $ X t ..^.3X3X(./.4X].<.b 5 > v >.rX8X>X=X&X1X*X-X8X9X9X9X9X9X9X9X",
">X:X:X:X>X:X:X=X=X:X:X:X9X9X9X9X9X9X*X*X:XpXrX`.B 5 , c ( W.4X_.^.[.eX_.5.J P J W.4X[./.4X{.<.b w > 0 g.yXgX:X:X=X=X>X>XiX:X8X-X9X9X9X9X9X9X",
"7X7X9X9X>X:X:X>X;X;X>X>X:X>X:X*X&X:X:X1X:X:X8X8XfXW.B < 6 b @.].OX]._.oX[.^.^. X`.(.{.OXq.N x 1 3 J `.sX8X:X&X>X;X9X;X;X;X:X:X>X>X>X:X:X:X:X",
"7X7X9X9X>X>X>X>X9X;X:X>X:X:X:X>X>X=X>X:X:X:X:X;X6XrXbXh.5 6 6 b <.].eX_.(.7X$X^.{.4Xx.( 7 5 3 -.^.MX0X8X>X*X>X9X9X9X7X7X;X>X>X*X>X:X:X:X:X:X",
"9X9X9X>X>X>X>X>X>X>X>X:X:X:X>X>X:X:X:X:X:X:X:X:X9X9XqXrXeX0.6 < 4 N 8.OX{.x./.4XQ.X.x 5 > .. XfXsX9X8X:X>X>X>X>X>X>X>X>X>X>X:X>X>X>X>X:X>X:X",
">X>X>X>X>X>X>X>X>X>X>X>X>X>X>X>X>X>X>X:X:X:X:X:X*X>X9X0XqXMXqX=.g > x ( E.4XOX8.v 6 < v W.fXsX8X9X>X>X>X>X>X>X>X>X>X>X>X>X>X>X>X>X>X>X>X>X>X",
">X>X>X>X>X>X>X>X>X>X>X>X>X>X>X>X>X>X>X:X:X:X:X:X:X>X9X9XqXqXqXfX[.B 5 5 n r.O.4 O h j.fXsX;X9X;X>X>X>X>X>X>X>X>X>X>X>X>X>X>X>X>X>X>X>X>X9X>X",
">X>X>X>X>X>X>X>X>X>X>X>X>X>X>X>X>X>X>X>X:X:X:X:X:X*XiX>X-X0X6X-XpXgXx.0 4 y 1 5 0.yXsX%X*X>X,X;X:X>X>X>X>X>X>X>X>X>X>X>X>X>X>X>X>X>X>X>X9X>X",
">X>X>X>X>X>X>X>X>X>X>X>X>X>X>X>X>X>X>X>X>X:X>X>X:XiX&X:XiX:X>X9X&X-XsX4Xx.w ..3XfX-X9X>X>X-X>X9X>X>X>X>X>X>X>X>X>X>X>X>X>X>X>X>X>X>X>X>X>X>X",
">X>X>X>X>X>X>X>X>X>X>X>X>X>X>X>X>X>X>X>X>X>X>X>X*X=X=X:X:X*X&X:X>X:X-XpXsXqX0XpX7X;X;X&X9X9X9X9X>X>X>X>X>X>X>X>X>X>X>X>X>X>X>X>X>X>X>X>X>X>X"
};
