/* XPM */
static char *_47375e173d44375a406c29bc609c246IYbv8sy12zZvOP3M[] = {
/* columns rows colors chars-per-pixel */
"70 70 202 2 ",
"   c #000000",
".  c #0C0502",
"X  c #07090A",
"o  c #0D0D0D",
"O  c #110703",
"+  c #130804",
"@  c #1D0C05",
"#  c #140C08",
"$  c #131618",
"%  c #230C02",
"&  c #261107",
"*  c #2D1105",
"=  c #271108",
"-  c #2D1409",
";  c #321306",
":  c #31160A",
">  c #36190B",
",  c #3B1A0C",
"<  c #232526",
"1  c #2B2B2C",
"2  c #2F3335",
"3  c gray23",
"4  c #471701",
"5  c #481702",
"6  c #491A05",
"7  c #451E0D",
"8  c #4B1D09",
"9  c #4D220F",
"0  c #51230E",
"q  c #5A250D",
"w  c #4E2310",
"e  c #542511",
"r  c #5A2712",
"t  c #5D2A13",
"y  c #62280E",
"u  c #632C13",
"i  c #6B2E15",
"p  c #6E3016",
"a  c #723216",
"s  c #7C3314",
"d  c #733419",
"f  c #7B3618",
"g  c #7D391A",
"h  c #7F3F21",
"j  c #4B4D4D",
"k  c #4D5052",
"l  c #656869",
"z  c #66696A",
"x  c #727373",
"c  c #81300D",
"v  c #88271F",
"b  c #852D1D",
"n  c #813615",
"m  c #853917",
"M  c #8D3A14",
"N  c #82331B",
"B  c #8B321E",
"V  c #833A1A",
"C  c #8C3E1C",
"Z  c #923D17",
"A  c #90331F",
"S  c #913B1E",
"D  c #8E2222",
"F  c #8D2A20",
"G  c #922323",
"H  c #9B2525",
"J  c #902B21",
"K  c #9C2B25",
"L  c #893B20",
"P  c #913320",
"I  c #9C3321",
"U  c #A02627",
"Y  c #A32C25",
"T  c #AC2E24",
"R  c #A72828",
"E  c #AE2929",
"W  c #B52727",
"Q  c #B42A27",
"!  c #B72728",
"~  c #B52828",
"^  c #BC2828",
"/  c #A23F2C",
"(  c #B8322C",
")  c #C43030",
"_  c #8D401C",
"`  c #92411D",
"'  c #9B461E",
"]  c #9E491F",
"[  c #A1491F",
"{  c #834225",
"}  c #8C4425",
"|  c #89462B",
" . c #8C492B",
".. c #964A26",
"X. c #9E4921",
"o. c #944D2D",
"O. c #99502D",
"+. c #8C4E34",
"@. c #954F30",
"#. c #8C5238",
"$. c #955233",
"%. c #955438",
"&. c #935A3E",
"*. c #9B5B3D",
"=. c #A44C21",
"-. c #AA4F22",
";. c #AD5123",
":. c #A1502A",
">. c #AD4E37",
",. c #A54F3C",
"<. c #A4623D",
"1. c #935C44",
"2. c #BB5D53",
"3. c #986548",
"4. c #9E6C55",
"5. c #9F745C",
"6. c #A66848",
"7. c #AB704F",
"8. c #A86250",
"9. c #A46E56",
"0. c #A87457",
"q. c #B3775C",
"w. c #A67A65",
"e. c #B57B62",
"r. c #B17E68",
"t. c #C54542",
"y. c #CD4747",
"u. c #CF4748",
"i. c #CD4848",
"p. c #CC6866",
"a. c #D66F6F",
"s. c #C07D74",
"d. c #D97272",
"f. c #AA846B",
"g. c #B7886D",
"h. c #AA8573",
"j. c #B28672",
"k. c #B48C7A",
"l. c #B6957C",
"z. c #C08E77",
"x. c #858686",
"c. c #AE9081",
"v. c #B89A88",
"b. c #B9A48A",
"n. c #BDA898",
"m. c #A1A2A3",
"M. c #A8AAAA",
"N. c #ACADAE",
"B. c #BEABA1",
"V. c #ADAFB0",
"C. c #C59E89",
"Z. c #C49B91",
"A. c #D99998",
"S. c #C6A58C",
"D. c #C7A695",
"F. c #D0A896",
"G. c #D3AD9C",
"H. c #C5B49F",
"J. c #C4AEA5",
"K. c #C8ACA1",
"L. c #C8B7A6",
"P. c #CCB6AC",
"I. c #D4B8AE",
"U. c #C9BAB3",
"Y. c #E4A5A5",
"T. c #CCC2AC",
"R. c #CEC5BB",
"E. c #D7C5B8",
"W. c #D6D1BF",
"Q. c #E0C9BE",
"!. c #CAC6C3",
"~. c #D7CDC8",
"^. c #D5D1CC",
"/. c #DBD7C9",
"(. c #D6D4D3",
"). c #DAD5D3",
"_. c #DBDCD4",
"`. c #DEDEDD",
"'. c #E3CCC7",
"]. c #E5D4CA",
"[. c #EDD2D2",
"{. c #E8DCD7",
"}. c #ECDCD4",
"|. c #DFE1D8",
" X c #E7E7DB",
".X c #DFDFE0",
"XX c #E2E3E3",
"oX c #E7E7E5",
"OX c #EBECE5",
"+X c #E6EBEB",
"@X c #ECEDED",
"#X c #F0EAE5",
"$X c #F1ECEC",
"%X c #EFF0EB",
"&X c #F2F3EC",
"*X c #E6EEF0",
"=X c #EAEFF0",
"-X c #EDF2F3",
";X c #F4F6F5",
":X c #F9F6F5",
">X c #F7F9F4",
",X c #FDFDFD",
/* pixels */
"                                  o j x.(.,X,X,X,X,X,X,X,X,X,X,X,X,X,X,X,X,X,X,X,X,X,X,X,X,X,X,X,X(.x.j o                                   ",
"                                  o 3 x.!.;X,X,X,X,X,X,X,X,X,X,X,X,X,X,X,X,X,X,X,X,X,X,X,X,X,X,X;X!.x.3 o                                   ",
"      . . O + + + + + + O . .     o 3 x N.(.oXoXXX.X.X.X.X.X.X.X.X.X.X.X.X.X.X.X.X.X.X.X.XXXoXoX(.N.x 3 o     . . O + + + + + + O . .       ",
"    . + @ - : > > > > : - = @ .   X < k x.m.N.V.N.M.M.M.M.M.M.M.M.M.M.M.M.M.M.M.M.M.M.M.M.N.V.N.m.x.k < X   . @ = - : > > > > : - @ + .     ",
"    . % > 9 r t u u t r e 7 : @ . X $ 2 k z z z z z z z z z z z z z z z z z z z z z z z z z z z z k 2 $ X . @ : 7 e r t u u t r 9 > % .     ",
"    + - w p g V _ _ V V d u 9 : + . X $ < 1 1 1 1 1 1 1 1 1 1 1 1 1 1 1 1 1 1 1 1 1 1 1 1 1 1 1 1 < $ X . + : 9 u d V V _ _ V g p w - +     ",
"    + > t g ` X.=.=.=.' C f u 7 - + . . + # # # # # # # # # # # # # # # # # # # # # # # # # # # # + . . + - 7 u f C ' =.=.=.X.` g t > +     ",
"    + > u V ' =.-.;.-.=.' C f t 7 ; % % % % % % % % % % % % % % % % % % % % % % % % % % % % % % % % % % ; 7 t f C ' =.-.;.-.=.' V u > +     ",
"    + > u V ' =.-.;.;.-.=.' C d y q 8 6 5 4 4 4 4 4 5 6 8 8 8 8 8 8 8 8 8 8 8 8 8 8 6 6 5 5 4 4 4 4 5 6 0 y a C ' =.-.;.;.-.=.' V u > +     ",
"    + > t V ' =.-.-.;.-.=.=.' C V d a a a a a a a a a a a a a a a a a a a a a a a a a a a a a a a a a a s V C ' =.=.-.;.-.-.=.' V t > +     ",
"    + > t V ' X.=.=.=.=.=.=.=.X...o.o.o.o.o.o.o.o.o.o.} _ C C C _ _ _ _ _ _ C C C _ } } o.o.o.o.o.o.@.o.o.O.O.=.=.=.=.=.=.=.X.' V t > +     ",
"    + > t V ` ' ' ' ' ' ' ' X.:.<.6.7.0.q.q.q.e.q.q.6.%...Z Z ` ' ' X.X.' ' ` Z Z } O.*.6.7.0.q.q.q.e.e.q.7.<.:.' ' ' ' ' ' ' ` V t > +     ",
"    + > t V ` ' ` ` _ M M ` O.6.q.g.l.S.F.F.G.G.G.C.g.6.o.m M Z [ =.=.=.=.[ ' Z m } *.0.g.l.S.S.F.G.G.G.D.z.7.O.` M M Z ` ` ' ` V t > +     ",
"    + > t V ` ` C V m n n C $.0.l.D.T.E.'.].}.}.}.Q.D.w.$.V m Z [ =.-.-.=.[ ` m V  .3.g.S.L.E.'.].}.}.}.'.G.j.*.C n n m V C ` ` V t > +     ",
"    + > t V C C V V g f V | 3.f.n.E.]. X&X:X:X,X:X#XE.k.3. ._ ` =.=.-.-.=.=.' _ } &.0.b.T./. X%X:X:X,X:X$X~.v.9. .V f g V V C C V t > +     ",
"    + > r f C m n f g { +.3.w.v.T./.OX>X,X,X,X,X,X:X].K.j.4.*.O.X.' ' ' ' X...$.&.5.l.L./. X&X>X,X,X,X,X,X{.P.k.4.&.| g f n m C f r > +     ",
"    + : r d V n s s h #.3.f.v.L./. X>X>X,X,X,X,X,X,X#X~.J.v.e.6...Z M M M } $.3.w.l.H.W. X&X>X,X,X,X,X,X,X$X].P.v.w.1.{ f s n V d r : +     ",
"    + : e a n n s f | 3.f.b.T./. X&X>X,X,X,X,X,X,X,X:X#X{.E.C.0.@.m c c m  .3.f.b.L.W. X&X>X,X,X,X,X,X,X,X>X$X{.E.D.w.#.f s s f a e : +     ",
"    + : e a g V g { &.w.b.T./. X&X>X,X,X,X,X,X,X,X,X,X,X:X{.P.j.1.{ f g { #.0.v.L.W. XOX:X,X,X,X,X,X,X,X,X,X,X:X#XE.c.3.{ g n g a e : +     ",
"    O : 0 a L | +.1.5.l.L.W.|.OX%X;X>X>X>X;X;X;X;X;X,X,X,XOXE.v.9.1.#.#.1.4.h.n.R._.oX%X;X>X>X;X>X;X;X;X;X>X,X,X$X/.D.w.1.+.} V a 0 : O     ",
"    + : q f  .*.4.f.v.B.R./.|.oX+X@X=X@X@X@X@X@X@X@X;X;X;XoX~.J.v.h.w.w.h.c.n.U.~._.XXOX@X@X=X@X@X@X@X@X@X-X;X;X@X).U.v.h.4.*. .f q : +     ",
"    + ; q g $.9.k.n.U.!.^.).`. XXXoXoXoXoXoXoXoXoXoXoX+XoXXX).!.U.J.B.B.J.L.U.~.^._.|.XXoXoXoXoXoXoXoXoXoXoX+X+XXX`.~.U.n.k.9.$.g q ; +     ",
"    + ; q V *.r.D.R.(.`.`.`.`.`.`.`.`.`.`.`.`.`.`.`.`.`.`.`.`.).(.^.^.^.^.^.(.).`.`.`.`.`.`.`.`..X`.`.`.`.`.`.`.`.`.`.(.R.D.r.*.V q ; +     ",
"    + ; q g *.j.J.(.XXoXXXXXXXXXXXXXXXXXXXXXXXXXXXXXXXXXXXXXXXXXXXXXXXXXXXXXXXXXXXXXXXXXXXXXXXXXXXXXXXXXXXXXXXXXXXXXoXXX(.J.j.*.g q ; +     ",
"    + ; q g *.j.P.`.*X-X*X+X+X+X+X+X+X+X+X+X+X+X+X+X+X+X+X+X+X*X-X-X-X-X-X-X-X*X+X+X+X+X+X+X+X+X+X+X+X+X+X+X+X+X+X+X-X+X`.P.j.*.g q ; +     ",
"    O * 0 d &.j.P.`.*X-X-X-X-X-X-X-X-X-X-X-X-X-X-X-X-X-X-X-X-X-X-X-X;X;X;X;X-X-X-X-X-X-X-X-X-X-X-X-X-X-X-X-X-X-X-X-X-X*X`.P.j.*.d 0 * O     ",
"    O * 8 d #.f.K.^.oX@X@X$X$X$X$X$X$X$X$X$X$X$X$X$X$X$X$X$X$X$X$X$X$X$X$X$X$X$X$X$X$X$X$X$X$X$X$X$X$X$X$X$X$X$X$X@X@XoX^.K.f.#.d 8 * O     ",
"    O * 8 a +.w.Z.I.'.[.[.[.[.[.[.[.[.[.[.[.[.[.[.[.[.[.[.[.[.[.[.[.[.[.[.[.[.[.[.[.[.[.[.[.[.[.[.[.[.[.[.[.[.[.[.[.[.'.I.Z.w.+.a 8 * O     ",
"    O * 9 a  .8.s.A.A.Y.Y.Y.Y.Y.Y.Y.Y.Y.Y.Y.Y.Y.Y.Y.Y.Y.Y.Y.Y.Y.Y.Y.Y.Y.Y.Y.Y.Y.Y.Y.Y.Y.Y.Y.Y.Y.Y.Y.Y.Y.Y.Y.Y.Y.Y.Y.Y.Y.A.s.8. .a 9 * O     ",
"    O * 9 a } ,.2.p.a.d.d.d.d.d.d.d.d.d.d.d.d.d.d.d.d.d.d.d.d.d.d.d.d.d.d.d.d.d.d.d.d.d.d.d.d.d.d.d.d.d.d.d.d.d.d.d.d.a.p.2.,.L a 9 * O     ",
"    O - 9 a L / >.t.y.u.u.y.i.i.i.i.i.i.i.i.i.i.i.i.i.i.i.i.i.i.i.i.i.i.i.i.i.i.i.i.i.i.i.i.i.i.i.i.i.i.i.i.i.i.y.u.u.u.t.>./ L a 9 - O     ",
"    O - 9 a B I ( ( ) ) ) ) ) ) ) ) ) ) ) ) ) ) ) ) ) ) ) ) ) ) ) ) ) ) ) ) ) ) ) ) ) ) ) ) ) ) ) ) ) ) ) ) ) ) ) ) ) ) ( ( I B a 9 - O     ",
"    O - 9 a B I T ~ ^ ^ ^ ^ ^ ^ ^ ^ ^ ^ ^ ^ ^ ^ ^ ^ ^ ^ ^ ^ ^ ^ ^ ^ ^ ^ ^ ^ ^ ^ ^ ^ ^ ^ ^ ^ ^ ^ ^ ^ ^ ^ ^ ^ ^ ^ ^ ^ ^ ^ ~ T I B a 9 - O     ",
"    O - 9 a B I Y Q ~ ! ! ~ W W W ~ ~ ~ ~ ~ ~ ~ ~ ~ ~ ~ ~ ~ ~ ~ ~ ~ ~ ~ ~ ~ ~ ~ ~ ~ ~ ~ ~ ~ ~ ~ ~ ~ ~ ~ ~ W W W ~ ! ! ~ Q Y I B a 9 - O     ",
"    O - 9 p B P Y R E Q E E E E E E E E E E E E E E E E E E E E E E E E E E E E E E E E E E E E E E E E E E E E E E Q E R Y P B p 9 - O     ",
"    O - 9 p B P K Y R R R R R R R R R R R R R R R R R R R R R R R R R R R R R R R R R R R R R R R R R R R R R R R R R R Y K P B p 9 - O     ",
"    O - 0 p N B J K H U U H H H H H H H H H H H H H H H H H H H H H H H H H H H H H H H H H H H H H H H H H U H H U U H K J B N p 0 - O     ",
"    O - 0 p N B J G H H H H H H H H H H H H H H H H H H H H H H H H H H H H H H H H H H H H H H H H H H H H H H H H H H G J B N p 0 - O     ",
"    + - 0 p N B F G G G G G G G G G G G G G G G G G G G G G G G G G G G G G G G G G G G G G G G G G G G G G G G G G G G G F B N p 0 - +     ",
"    + - 0 p N B F D D D D D D D D D D D D D D D D D D D D D D D D D D D D D D D D D D D D D D D D D D D D D D D D D G D D F B N p 0 - +     ",
"    + - 0 p N b v D D D D D D D D D D D D D D D D D D D D D D D D D D D D D D D D D D D D D D D D D D D D D D D D D D D D v b N p 0 - +     ",
"    + - 0 a N b v D D D D D D D D D D D D D D D D D D D D D D D D D D D D D D D D D D D D D D D D D D D D D D D D D D D D v b N a 0 - +     ",
"    + - 0 p N b v D D D D D D D D D D D D D D D D D D D D D D D D D D D D D D D D D D D D D D D D D D D D D D D D D D D D v b N p 0 - +     ",
"    O - 9 i f B v D D D D D D D D D D D D D D D D D D D D D D D D D D D D D D D D D D D D D D D D D D D D D D D D D D D D v B f i 9 - O     ",
"    O - 9 i f B b F F F F v D D D D D D D D D D D D D D D D D D D D D D D D D D D D D D D D D D D D D D D D D D v F F F F b B f i 9 - O     ",
"    O - 7 u a N B B B B b b b v D D D D D D D D D D D D D D D D D D D D D D D D D D D D D D D D D D D D D D v b b b B B B B N a u 7 - O     ",
"    O = 7 t a f V C C B B N b b D D D D D D D D D D D D D D D D D D D D D D D D D D D D D D D D D D D D D D b b N B B C C V f a t 7 = O     ",
"    . & 7 t a f C C C C V f N b v D D D D D D D D D D D D D D D D D D D D D D D D D D D D D D D D D D D D v b N f V C C C C f a t 7 & .     ",
"    O = 7 u a V _ ` ` _ V f N B b F J J J J J J J J J J J J J J J J J J J J J J J J J J J J J J J J J J F b B N f V _ ` ` _ V a u 7 = O     ",
"    O - 7 u f C ' ' ' ` V g N B B A P P P P P P P P P P P P P P P P P P P P P P P P P P P P P P P P P P A B B N V V ` ' ' ' C f u 7 - O     ",
"    O - 9 i V ` ' =.] ` C V N V B S S S S S S S S S S S S S S S S S S S S S S S S S S S S S S S S S S S S B V N V C ` ] =.' ` V i 9 - O     ",
"    O - 9 p V ` ] =.X.` V f f V C C C C C C C C C C C C C C C C C C C C C C C C C C C C C C C C C C C C C C V f f V ` X.=.] ` V p 9 - O     ",
"    + - 0 a V ` ' =.' ` V f f f V V V V V V V V V V V V V V V V V V V V V V V V V V V V V V V V V V V V V V f f f V ` ' =.' ` V a 0 - +     ",
"    + - 0 a V ` ' ' ' C f a a a f f f g f f f f f f f f f f f f f f f f f f f f f f f f f f f f f f g f f f a a a f C ' ' ' ` V a 0 - +     ",
"    + - 0 p V C ` ` _ V f p i i p a a a a a a a a a a a a a a a a a a a a a a a a a a a a a a a a a a a a p i i p f V _ ` ` C V p 0 - +     ",
"    + - 0 p V C ` ` C V a i i i i i i i i i i i i i i i i i i i i i i i i i i i i i i i i i i i i i i i i i i i i a V C _ _ C V p 0 - +     ",
"    O - e p V C C _ C V a i i i i i i i i i i i i i i i i i i i i i i i i i i i i i i i i i i i i i i i i i i i i a V C _ C C V p e - +     ",
"    + - e a V C _ _ C V f a i i i p i i i i i i i i i i i i i i p i i i i i i i i i i i i i i i i i i i p i i i a f V C _ _ C V a e - +     ",
"    + - e a V C _ _ C V f d a a a a a a a a a a a a a a a a a a a a a a a a a a a a a a a a a a a a a a a a a a d f V C _ _ C V a e - +     ",
"    O - 0 p V C C C C V V f f f f f f f f f f f f f f f f f f f f f f f f f f f f f f f f f f f f f f f f f f f f V V C C C C V p 0 - +     ",
"    O - 9 i f V V C C V V V V V V V V V V V V V V V V V V V V V V V V V V V V V V V V V V V V V V V V V V V V V V V V C C V V f i 9 - O     ",
"    O - 9 i f f V V V V C C C C C C C C C C C C C C C C C C C C C C C C C C C C C C C C C C C C C C C C C C C C C C V V V V f f i 9 - O     ",
"    O - 9 u a a d d f V C C ` ` ` ` _ _ ` ` ` ` ` ` ` ` ` ` _ _ ` ` ` ` ` ` ` ` ` ` _ _ ` ` ` ` ` ` ` ` ` ` ` ` C C V f d d a a u 9 - O     ",
"    . = 7 r u i i i p f V C C C C C C C C C C C C C C C C C C C C C C C C C C C C C C C C C C C C C C C C C C C C V f p i i i u r 7 = .     ",
"    . % > 9 e e e e r u p d f f f f f f f f f f f f f d f f f f f f f f f f f d f f f f f f f f f f f d f f f f d p u r e e e e 9 > % .     ",
"    . + = : , , > , , 7 9 e e e e e e e e e e e e e e e e e e e e e e e e e e e e e e e e e e e e e e e e e e e e 9 7 , , > , , : = + .     ",
"    . . + @ % % % % % - - - : : : : : : : : : : : : : - : : : : : : : : : : : - : : : : : : : : : : : - : : : : - - - % % % % % @ + . .     ",
"      . . . . . . . . . O + + + + + + + + + + + + + + + + + + + + + + + + + + + + + + + + + + + + + + + + + + + + O . . . . . . . . .       ",
"                                                                                                                                            ",
"                                                                                                                                            "
};
