/* XPM */
static char *_4089_87a5cce95d3f1ac7d9b8a9469162721e752cbfd59d6fadd0ddae3a9ac86e7776[] = {
/* columns rows colors chars-per-pixel */
"60 60 115 2 ",
"   c #744F3E",
".  c #75543F",
"X  c #7B553E",
"o  c #7B593F",
"O  c #664B42",
"+  c #6A4E43",
"@  c #6D5345",
"#  c #6F5846",
"$  c #66564D",
"%  c #6C554B",
"&  c #65594F",
"*  c #6D5A4D",
"=  c #745545",
"-  c #7A5644",
";  c #745A45",
":  c #7C5B44",
">  c #73564A",
",  c #795549",
"<  c #735B4C",
"1  c #7C5C4C",
"2  c #655650",
"3  c #6A5750",
"4  c #665B55",
"5  c #6C5C54",
"6  c #665E5A",
"7  c #6B5E59",
"8  c #725D53",
"9  c #7B5D53",
"0  c #725F59",
"q  c #7F6145",
"w  c #76604D",
"e  c #7C624D",
"r  c #6E6156",
"t  c #67605E",
"y  c #6C625C",
"u  c #746255",
"i  c #7B6354",
"p  c #7D6956",
"a  c #73645B",
"s  c #7B655A",
"d  c #75695D",
"f  c #7B6B5C",
"g  c #7E705F",
"h  c #676361",
"j  c #6B6561",
"k  c #6E6862",
"l  c #726661",
"z  c #736A61",
"x  c #7B6A61",
"c  c #7F7060",
"v  c #81563C",
"b  c #845C3E",
"n  c #885E3C",
"m  c #86613E",
"M  c #8B643E",
"N  c #805745",
"B  c #835D44",
"V  c #885F44",
"C  c #815648",
"Z  c #845C4A",
"A  c #895C4C",
"S  c #805E54",
"D  c #8A5F50",
"F  c #866245",
"G  c #8A6643",
"H  c #8B6844",
"J  c #85634C",
"K  c #89644B",
"L  c #86684D",
"P  c #896A4C",
"I  c #846453",
"U  c #8B6454",
"Y  c #856A54",
"T  c #8A6C55",
"R  c #82665A",
"E  c #8B6658",
"W  c #846B5B",
"Q  c #8D6B5B",
"!  c #906751",
"~  c #926A54",
"^  c #986F57",
"/  c #916C5B",
"(  c #867056",
")  c #8C7256",
"_  c #84715C",
"`  c #8B735B",
"'  c #8E7A5D",
"]  c #917457",
"[  c #967854",
"{  c #987A57",
"}  c #92765B",
"|  c #9D755D",
" . c #957A5C",
".. c #997D5D",
"X. c #846C63",
"o. c #8C6E61",
"O. c #836F68",
"+. c #906F60",
"@. c #847062",
"#. c #8B7562",
"$. c #8D7A64",
"%. c #857169",
"&. c #8E7C6A",
"*. c #927263",
"=. c #9A7563",
"-. c #937C62",
";. c #9A7D60",
":. c #937569",
">. c #977C6A",
",. c #9F7C68",
"<. c #97805F",
"1. c #9B815E",
"2. c #968364",
"3. c #9C8363",
"4. c #9B836C",
/* pixels */
"-.}  .*. . .-.-.#.z y 5 u Y Y T ) P Y r y d -.3.2.2.-.' Y f u F M M M M M M H P w u r ; q M q w r r E / / / ~ Q U 7 7 u ",
"}  . .} }  . .} ` ` f y 4 5 Y e J p r d d $.3.3.3.<.( ( g u ; F m M M M M M M [ P e r r * ; ; r d ( / / ~ / ~ S 7 6 3 U ",
"Q  .-. .`  .` ` Q ) ( _ a r 4 < @ % u d ' 2.3.3.' ( _ _ p u ; m o m M M H H M M M P w r k r r d @.} / / / ~ S 8 8 8 3 9 ",
"u Y Y ` $.*.` ` ` ) T T Y u r t 5 * > ( ....;.' ( _ f %.s p w w q q o m H H H M M M M q & r k p #.` / / / R 0 9 S i 8 a ",
"7 u i W _ ` #.#.` ( ( Q ) Y i y y y 5 Y  .' T p d d %./ *.W s f u q ; q F G H M M M H H H w r r R Q / Q 9 8 9 Z B Z U 9 ",
"8 a 8 i W W _ $.&.$.$.#.` #.' p r y y 5 9 e 9 0 a o.Q / Q Q o.f p u q o q F m H M M H M M P w r 5 8 i 0 5 9 I A V F J I ",
"1 8 8 5 u u p W $.$.$.$.$.&.2.%.( s y 7 % > 7 a E Q Q Q Q / } *.I u * w o ; m m M M M H M M M w r y y 7 s J J I K Z J A ",
", 5 5 5 5 5 u p p _ $.%.&.#.$.#.` ` w 1 8 0 s Q Q ~ Q ~ Q Q / Q 1 u u e w w ; o M M M M <.q <.q u h y i Y J T K K K B Z ",
"5 4 8 , 9 0 7 7 u i W W #.#.#.Q T Y I 9 u f Q Q E / / E ! / Q i u 9 I J I w < ; q M M M H J H p a y s Y L L T K J J B > ",
"5 8 1 C Z R R 5 y 7 u i W _ ( Y Y Y 9 u W Q / Q / Q Q U ~ U R 0 9 I B Z K T u u # ; G L F F w r r u Y K U L L B B Z > 7 ",
"> 1 C Z Z J E W a r r 5 s Y W 9 I < s X.+./ / / / U I E U R 0 8 , A Z Z Y Q W f r r * L L w 5 t s I K P T K Z B , 5 7 7 ",
"5 9 S S J R W W X.s 6 y 5 8 9 1 8 s o.*.*./ Q Q U J U W R 0 0 5 > : J J J I W #.x r r 5 ; r r i F K K K J Z : - 5 7 7 7 ",
"0 7 9 S J R W R U W W 0 6 7 4 8 0 x *.*./ / / U R U s l l s x a 6 # 1 J J K I U _ f u y 7 a 9 Z F K F K B X = 5 7 7 W 9 ",
"x l 7 1 Z Z Z Z J I W W s 7 y 6 a s W o./ / Q U I s a a X.-.4.@.d 5 % 1 I J J I Y o.W 8 h y < : N V V B - - 7 7 x +.=.:.",
":.x j 5 < , Z B Z B S U R I r 6 h 7 0 R Q Q E U a j y $.3.3.2.4.@.j 5 % 1 J J J I Y E W 9 y 4 < : B V - > 7 7 O.=.| | ,.",
",.:.x 7 3 @ - N N B A J I I Y i 7 l a 8 9 S R a 7 d -.;...<.;.3.3.x j 5 % < J K J J U Y W u 7 2 = , - > 7 j #.=.| | | | ",
"=.=.R l 7 5 @ = - N Z J F I Y Y R i a 7 5 % 5 y d } 3...<.<...3.2.$.k h r * % 1 J J I E I I 1 8 3 8 3 7 z :.| | | | | =.",
"=.R 0 0 7 7 7 3 = = B Z Z Z I U U J B 8 5 y 7 Y  ...{ { ........' d z z y y * # q I L J I Z Z < 0 7 a X.+.~ ^ ^ ^ | | | ",
"i a 0 3 9 9 8 7 4 % > : Z B Z J J Z , > r r ( [ { ....1.<.{ ' _ d d g _ p d y r * e I J J 1 , 8 7 a R / ~ ! ~ ~ ^ | | =.",
"a 0 8 9 C C 1 9 7 7 4 * 1 Z F Z A : > 5 d ) [ { ..1.1... .) p d d ( P P K e r y y 3 1 , Z , 5 7 5 R ~ ! ! ~ ~ ~ ~ | / u ",
"7 8 Z Z J S J I S 9 7 6 4 < Z A i > u d ` 1.1.1.1.1...] L u f d w H G H M H L u y y * % > 5 y u I E ! ! ! ! ! U E R a a ",
"7 0 1 I J Z Z Z J S I 5 7 5 7 0 8 a d ` 1.1...1.{ [ ) p u d a r r w G M H M H P u y y r 5 7 r I ! ~ ! ! K K U D 8 5 7 5 ",
"7 7 < 1 Z Z Z Z Z I I I 9 7 y y j z X.<.1.1.1.} ' T e i a a X.X.a y w H M M H M K e y t h a R ~ ~ ~ ~ ! U U I 5 7 7 9 9 ",
"W y 5 % , : : Z Z Z I Z I i a t h k x <.1.1...' Y e d a s :.+.&.c d r w H M M M M H p y j 0 i U ~ ~ ~ U E I 5 4 9 B Z I ",
"K s 7 5 = - , B Z Z J I Z I I 8 t y a Y  .<.' Y w d a W o.+.+.+.:.O.y 7 < G M M M m L s r y 8 i T ~ E E I 5 r i V n G F ",
"F U 0 7 5 @ - , F Z F J I Y Y Y u y k y Y ` Y 9 u d o.Q / Q +.+.+.#.l j r * F G G F F F e 5 a a i I I 5 3 8 F m M M n F ",
"F R 5 t h 5 % > , F Z V K E W Q Y p a d r u 8 a f Q U U E / Q / +.X.z j d r * q B F Z F Z F 8 y 7 3 4 5 1 G m m m M m F ",
"B 5 6 j x z r u < , Z J Z J J Y Y J w a z k l 9 E U U U D U +.Q R a a W d a a & 1 B F J Z J 1 5 y t 7 1 m M M M M M m n ",
"r j z $.-.*.f y 5 % ; 1 Z J Z J J 1 , s l l S E U U U D D E Q 9 u a E K K R u r * < J J J J * 7 t 5 : n M m M M M M b , ",
"h x -..... .;.$.a y * > B Z J Z , = u l a S U U D U D D U Q 0 a 0 I K F K T Y s u 5 * i J > 5 y * m n n n n n M m V ; 5 ",
"h f ] ] } {  .=.} f y 3 % 1 S Z > 5 a a E E U U U D U Q s 0 j y 5 B B K H K K U I s r * w 5 r u F m n n b n n n N ; 5 h ",
"z y f E ] } {  . .[ Y a u 5 3 > 5 l s E E U U U U E U 0 y y 9 l 7 < : B K F H K L p u a y r y F b b b B n n b X > 7 7 a ",
"g k r u L Y ]  .{ { { ` s y y 7 0 l E / Q E U / E 9 y j 5 i I J s u % ; : F K H K K I i y y 8 b b n b V b v - > 5 5 @.&.",
"2.f k y r i Y ]  . .....} p a y j y 0 o.Q / Q Q 9 y y 5 Y J K L T s r % ; , F K K K K J a 7 % - b b b b X X * 5 a 2.3.2.",
"3.$.d z z u w e T } ...... .W u k k y a E / Q a h r 8 Y T L L L L J u r 3 = - B V F K K J a 5 > = o N o - < 5 _ 3.3.3...",
"{ ..' d k x d u i T [ ....<...} p f j t 7 9 7 7 r i T T L L L J F L , 8 7 < = , B V K K J J u 6 % = : > % 8 #.3.3.....| ",
"{  .' u j j k j r w L )  ...1.1. ._ d j h r y r e T T P L L L F F 1 8 5 8 8 0 > , : L J K K I 5 5 6 < 5 u *.3.3...{ { { ",
" .} s y y y a y y y r e ) ..3.1.1.<.d d y y w e L P P P L H F B ; r 0 R R R 9 0 < - B F J K J i 5 y 5 u $.3.3.{ { {  ...",
"T f a j y u I Y d y y r p ' 1.1. .( d d u w L P P P P L L F : = 8 0 X.U U ! o.S i < > F J T Z 1 < u u <.1.1... .{ |  .] ",
"i a j y d U K H L w r t r p ' [ i w f r < J P P ( P P H b . # 5 8 o./ U D A D o.p s 9 * Z , - * r u <.3.1.1... ...] T J ",
"l h y u Y P P K H H J * y r r w < d s w F L P P P L F N - @ 5 0 E U A A A A A A Q R s 0 3 > @ 5 r ' 1.1.1.1...{ } T e 8 ",
"7 a 0 i G H P P L L F L q r y r y a u e L L P L L F : @ $ 7 5 0 9 A A A C A A C Z Q Q X.l 8 8 4 ( <.1.1...1...[ Y w u y ",
"0 0 y < F F F K L P H H G L q ; r y 6 w F L F L F ; $ 4 7 9 9 5 0 8 C C A C A A C A U S 0 l 7 8 ( 1.1.1.1.3. .Y w u j a ",
"I 9 r 4 ; - V G H L P P H G G F ; * t 2 1 1 F 9 > 2 6 y x C 1 9 7 y 3 , C C C C A C A U R l 0 8 P (  .1.1. .Y e d y a Z ",
"Z U 9 t 4 @ X n n H P P L L G F F : * r 7 4 8 0 5 6 7 R J I Z I R 7 7 7 % , C C C N A A D R l a w Y Y ) { Y i a r f J Z ",
"K Z J 8 7 4 @ X B n G F J F F F N b B ; 7 7 5 6 6 a R I I I W W R 9 7 h 6 % , C A A A A C D R x g d ( Y Y p a y R J K K ",
"I Z B , < 7 4 @ . b n V B F F B B b B B 8 0 7 7 0 R I I R I Y R R 9 0 0 7 a % , N C C A C A D Q f x d u i r s U K Z J T ",
"Z F Z , > * 5 6 $ = X b b b B B V B N 1 0 j 7 0 I Z I J U I e i i a 8 u R 9 0 % + N C A A A D ! U u a a 8 Y K F B K K J ",
"Z e 5 5 * R R 5 y 2 # . X v v n b - - % t t 8 Z Z Z I I Z 9 9 9 a u p H J J i r * $ = = C A D S , 9 l 8 I A Z F J K B Z ",
"1 5 7 a X.-. .-.f y 4 $ . X X X v X @ 7 t 8 1 Z Z I I J i 1 < y u e H H G G K e r r % = @ , C , % l i I K V V K K J B Z ",
"5 7 u $.2.2.2.1.;._ r 6 $ + @ .   O 4 6 * , Z J J i I Z , > y j p K H H H M M H L w * r @ > + % 5 R U K V F V K Z : , > ",
"y 7 x 2.3.<.3.2.....( u * 4 $   O 2 7 3 , Z Z J I I 1 > > 7 j a F K H H H M M M M M w r 7 2 % 5 0 Z Z A V A B B - - > 7 ",
"y h a $.<.1...;...<...' Y 5 5 & 2 6 3 > Z Z J R I , > % y y y j u L L L H H H M M M H q r t t y 8 Z J B B K B , , > 6 7 ",
"x t h d '  .....;...;... .( u 8 7 7 % 1 Z J I I S > < 8 d x #.x d d L L P H H H H M H H q u r y < Z B B Z B - - > 7 s o.",
">.s t j d `  .....3.3...3.3.{ W a h 4 % 1 i R e < > 5 f #.2.2.2.g y r 1 q F H H H H H H H e w y 7 8 , , B , > 5 7 X.:.:.",
"*.W y y y a _  ...;.;...3.3.3.3.#.d h 4 % 1 e , % u f -.2.3.3.3.<.f d 5 < 1 q H H H M H M H H e r 5 3 @ , 8 8 a o.:.>.*.",
"o.u l 7 y k a _ ..3.3.3.3.3.3.3.3.$.d t t * 1 % u p 2.3.3.3.3.2.' d z j u * ; q G M H M M M M P Z i y 5 5 7 0 Q *.+./ +.",
"y j 7 R s y j y p $.3.3.3.3.3.1...<.<.d h t 4 r f 2.4.3.2.3.2. .d r u Y u u * # o q M H M M H M F > 7 y 7 i Q / +./ / Q ",
"j s X./ #.@.z j r d } ....{ <...{ <.' g y k y d 2.3.3.3.3.} ` d a w T H L w u r # o q m M M M M F 3 y 0 R ~ / / / / U 7 ",
"f ` }  .;.;.-.@.k d f ( ` ) } .. .] ( p y y d <.2.3.3.2.' ` d d e K G G H L e u r w o o m M M q * y 5 U Q / / ~ ~ I 7 y "
};
