/* XPM */
static char *a1bd72565adb4973e3f0f28839fa3314aAcgEmsvCcL1Dna5[] = {
/* columns rows colors chars-per-pixel */
"70 70 19 1 ",
"  c #F7D99B",
". c #F7DB9C",
"X c #F8DA9A",
"o c #F9DB9B",
"O c #F8DA9C",
"+ c #F9DB9D",
"@ c #FADA9D",
"# c #F8DB9F",
"$ c #F9DB9F",
"% c #FCD99F",
"& c #F8DC9D",
"* c #FADC9E",
"= c #FBDD9F",
"- c #F8D9A0",
"; c #F9DAA1",
": c #F8DBA1",
"> c #FAD9A3",
", c #FADCA0",
"< c #FBDDA1",
/* pixels */
"<<<<<<++++::++++******************+++++++++++++++++++++++++++++*******",
"<<<<<<++++::++++******************+++++++++++++++++++++++++++++*******",
"<<<<<<+++++:++++******************+++++++++++++++++++++++++++++*******",
"<<<<<<+++++:+++++++***++++++++++*+++++++++++++++++++++++++++++++++++++",
"<<<<<<+++++++++++++*+*++++++++++++++++++++++++++++++++++++++++++++++++",
"<<<<<<<++++++++++++***++++++++++++++++++++++++++++++++++++++++++++++++",
"*****+++++++++++++++++++++++++++++++++++++++++++++++++++*+++++++++++++",
"*****+*+++++o+++++++++++++++++++++++++++++++++++++++++++++++++++++++++",
"*****+++++++++++++++++++++++++++++++++++++++++++++++++++++++++++++++++",
"*****++++++++++++++**+++++++++++++++++ +++++++++++++++++++++++++++++++",
"*****+++++++++++++++++++++++++++++++++++++++  ++++++++++++++++++++++++",
"*****+++++++++++++++++++++++++++++++++++++++++++++++++++++++++++++++++",
"*****+++++++++++++++++++++++++ +++++++++++++++++++++++++++++++++++++++",
"****+++++++++++++++ ++++++++++ ++++++++++++++++++++++++*+++ ++++++++++",
"****++++++++++++++++  ++++++++++++++++++++++ ++++++++++*+++ ++++++++++",
"****++++++++++++++++++++++ +++++++++++ +++++ +++++++++++++++++++++++++",
"***+++++++++++++ ++++++++++++++++++ ++++++++++++++++++++++++++++++++++",
"***++++++++++++++++++++++++++++++++ +++++++++++++++++++++++++++++++++ ",
"***++++++++++++++++++++++++++++ ++++++  ++++++++++++++++++++++++++++++",
"***+++++++++++++++++++++++++++++++++++++  ++++++++++++++++++++++++++++",
"***+++++++++++ +++++++++++++++++++++++++ +++++++++++++++++  ++ +++++++",
"***++++++++++++++++++*++++++++++++  +++++++++++++++++++*++ +++++++++++",
"**+++++++++++++++++++++++++++++++++++++ ++++++++++***++ ++++++++++++++",
"**++++++++*+++++*++++++++++++++++++++++++++++++*++++++++++++++++++++++",
"**+++++++++++++++++++++++++++++++++++++++ ++++++++++++++++++++++++++++",
"******++++++++++++++++++++++++++++++++++++++++++++++++++++++++++++++++",
"******++++++++++++++++++++++++++++++++++++++++++++++++++++ ++++ ++*+++",
"******++++++++++++++++++++++++++++++++++++++++++++  +++++++++++ ++++++",
"******+++++++++++++++++++++++++++++++++++++++++ + +++++ ++++++++++++++",
"******+++++++++++++++++++++++++++++++++++++++++ + ++++++++++++++++++++",
"******+++++++++++++***+++++++++++++++++++++++++++++++++++ ++++++++++++",
"**+++++++++++++++++++++++++++++*+++++++++++++++++++++++++ +++  ++++++*",
"***+++++++++++++++++++++++++++++++++++++++++++++++++++++++++++++++++++",
"***++++++++++++++++++++++++++++++++++++++**++++++++++++++++++++++o++++",
"***++++++++++++++++++++++++++++++++++++++**+++++++++  ++++ +++++. ++++",
"***++++++++++++++++++++++++++++++++++++++++++*++++++++++++ +++  .+++++",
"***+++++++++++++++++++++++++++++++++++++++++++++++++++++++++++++++++++",
"***+++++++++++++++++++++++++++++++++++++++++++++++++++++++++++++++++++",
"***+++++++++++++++++++++++++++++++++++++++*++++++++++++++ ++++++o+++++",
"***+++++++++++++++++++++++++++++++++++++++++++++*++++++++ +++ +++.++++",
"***++++++++++++++++++++++++++++++++++++++++++++++++++++++++  +++++++++",
"***+++++++++++++++++++++++++++++++++++++++++++++++++++++++++++++++++++",
"***+++++++++++++++++++++++++++++++++++++++++++++++++++++++++++++++++++",
"***+++++++++++++++++++++++*+++++++++++++++++++++++++++++++++++++++++++",
"***+++++++++++++++++++++++++++++++++++++++++++++++++++++++++++++++++++",
"***+++++++++++++++++++++++++++++++++++++++++++++++++++++++++++++++++++",
"***+++++++++++++++++++++++++++++++++++++++++++++++++++++****++++++++++",
"***+++++++++++++++++++++++++++++++++++++++++++++++++++++++++++++++++++",
"**+++++++++++++++++++*++++++++++++++++++++++++++++++++++++++++++++++o*",
"**++++++++++++++++++++++++++++++++++++++++++++++++++++++++++++++++++++",
"**++++++++++++++++++++++++++++++++++++++++++++++++++++++++++++++++++++",
"**++++++++++++++++++++++++++   ++++++++++++++++++++++++++++++++++++++<",
"**+++++++++++++++++++++++++++++++++++++++++++++++++++++++++++++++++++<",
"**+++++++++++++++++++++++++++ ++++++++++++++++++++++++++++++++++++++++",
"**++++++++++++++++++++++++++++++++++++++++++++++++++++++++++++++++++++",
"**++++++++++++++++++++++++++++++++++++++++++++++++++++++++++++++++++++",
"*****++++++++++++++++++ ++++++++++*++*++++++++++++++++++++++++++++++++",
"*****++++++++++++++++++++++++++*++++++++++++++++++++++++++++++++++++++",
"*****++++++++++++++++++++++++**++++++++++++++++++++++++++++++++++++++:",
"*****++++++++++++++++++++++++**++++**+++++++++++++++  ++++++++++++++++",
"*****+++++++++++*++++++++++++++*++++++++++++++++++++++++++++++++++++++",
"*****+++++++++++++++++++++++++++++++++++++++++++++++++++++++++++++++++",
"*****+++++++++++*+++++++++++++++++++++++++++++++++++++++++++++++++++o+",
"*****+++++++++++++++++++++++++++++++++++++++++++++++++++++++++++++++.+",
"*****++++++++++++++++++++++++++++++++++++++++++++++++++++++++++++++o+:",
"*****+++++++++++++++++++++++++++++++++++++++++++********+++++++++++++:",
"*****++++++++++++++++++++++++++++++++++++++++++++++++++++++++++++++++:",
"*****++++++++++++++++++++++++++++++++++++++++++++++++++++++++++++++++:",
"*****+++++++++++++++++++++++++++ +++++++++++++++++++++++++++++++*++++%",
"*****++++++++++++++++++++++++++++++++++++++++++++++++++++++++++<<<<<++"
};
