/* XPM */
static char *_781_8ac76135b72117f574734a44f92b4423ddf5a064267940d601078870d0c0cd8a[] = {
/* columns rows colors chars-per-pixel */
"32 32 209 2 ",
"   c #0F0B17",
".  c #0F0C17",
"X  c #0F0B19",
"o  c #0E0A1A",
"O  c #0E0B1B",
"+  c #0F0C18",
"@  c #100B17",
"#  c #100C17",
"$  c #110C17",
"%  c #110D17",
"&  c #130C16",
"*  c #130C17",
"=  c #140C16",
"-  c #140C17",
";  c #140E17",
":  c #100B18",
">  c #100B19",
",  c #110A1A",
"<  c #100B1A",
"1  c #100B1B",
"2  c #110B1B",
"3  c #100C18",
"4  c #110C18",
"5  c #110D18",
"6  c #100C19",
"7  c #120C18",
"8  c #120D18",
"9  c #120D19",
"0  c #130D19",
"q  c #110E19",
"w  c #100C1A",
"e  c #110C1A",
"r  c #110D1A",
"t  c #110C1B",
"y  c #110D1B",
"u  c #120C1A",
"i  c #120D1A",
"p  c #130D1A",
"a  c #120D1B",
"s  c #130E1A",
"d  c #130F1A",
"f  c #110A1C",
"g  c #100B1D",
"h  c #110C1C",
"j  c #110D1C",
"k  c #120C1C",
"l  c #120D1C",
"z  c #130D1C",
"x  c #120C1D",
"c  c #130C1D",
"v  c #120E1C",
"b  c #5A3836",
"n  c #5C3836",
"m  c #5E3937",
"M  c #613B37",
"N  c #663D36",
"B  c #653E37",
"V  c #613C3D",
"C  c #644035",
"Z  c #64403F",
"A  c #6F433B",
"S  c #6D433D",
"D  c #7C4D35",
"F  c #7C4E35",
"G  c #70453B",
"H  c #7E5136",
"J  c #664140",
"K  c #654241",
"L  c #664240",
"P  c #6E4242",
"I  c #745C54",
"U  c #755F56",
"Y  c #765F57",
"T  c #786158",
"R  c #825339",
"E  c #82563A",
"W  c #875A3E",
"Q  c #88593B",
"!  c #88593C",
"~  c #89593C",
"^  c #895A3C",
"/  c #8A5B3D",
"(  c #8B5C3D",
")  c #8B5D3E",
"_  c #8B5E3E",
"`  c #8E5E3E",
"'  c #8E5F3F",
"]  c #8E603F",
"[  c #91623F",
"{  c #865A40",
"}  c #8C5D42",
"|  c #8C5F43",
" . c #8B6141",
".. c #8E6040",
"X. c #8E6140",
"o. c #8E6241",
"O. c #8F6241",
"+. c #906141",
"@. c #916340",
"#. c #916341",
"$. c #926241",
"%. c #916342",
"&. c #916440",
"*. c #926440",
"=. c #926441",
"-. c #926541",
";. c #916442",
":. c #926442",
">. c #936442",
",. c #936542",
"<. c #926443",
"1. c #936543",
"2. c #936642",
"3. c #936643",
"4. c #956541",
"5. c #956641",
"6. c #956443",
"7. c #956543",
"8. c #956643",
"9. c #946644",
"0. c #946645",
"q. c #976645",
"w. c #966746",
"e. c #976842",
"r. c #956A43",
"t. c #956944",
"y. c #966844",
"u. c #966A44",
"i. c #986844",
"p. c #996A44",
"a. c #986B45",
"s. c #996B45",
"d. c #9B6846",
"f. c #9A6947",
"g. c #986A47",
"h. c #986B47",
"j. c #9A6B46",
"k. c #9D6B45",
"l. c #996C45",
"z. c #996C46",
"x. c #9B6C47",
"c. c #9B6D47",
"v. c #9D6C46",
"b. c #837472",
"n. c #8C7775",
"m. c #8B7876",
"M. c #8B7976",
"N. c #8C7874",
"B. c #8C7977",
"V. c #8D7977",
"C. c #8C7978",
"Z. c #8C7879",
"A. c #8E7B78",
"S. c #8D7C79",
"D. c #8F7E7C",
"F. c #8F7D7E",
"G. c #907B79",
"H. c #907E7C",
"J. c #907F7E",
"K. c #93827D",
"L. c #98877D",
"P. c #9A897D",
"I. c #9A887E",
"U. c #AC9278",
"Y. c #AC9379",
"T. c #AF9379",
"R. c #AC927A",
"E. c #AD957A",
"W. c #CA9661",
"Q. c #CF9A65",
"!. c #CF9B65",
"~. c #CD9B67",
"^. c #CE9B66",
"/. c #CF9B66",
"(. c #CF9B67",
"). c #CF9C65",
"_. c #CF9C66",
"`. c #CF9C67",
"'. c #CF9D67",
"]. c #CF9B69",
"[. c #CF9E68",
"{. c #CF9E69",
"}. c #D09A64",
"|. c #D09B65",
" X c #D19B65",
".X c #D09B66",
"XX c #D19B66",
"oX c #D09B67",
"OX c #D19B67",
"+X c #D09C64",
"@X c #D09C65",
"#X c #D19C65",
"$X c #D09C66",
"%X c #D19C66",
"&X c #D09C67",
"*X c #D09D67",
"=X c #D29C66",
"-X c #D09C68",
";X c #D09F6C",
":X c #D1A16E",
">X c #CFA476",
",X c #D3A471",
"<X c #D0A677",
"1X c #D0A678",
"2X c #917E80",
"3X c #E586A5",
"4X c #F9A0B3",
"5X c #F9A1B3",
"6X c None",
/* pixels */
"6X6X6X6X6X6X6X6X6X6X6X6X6X6X6X6X6X6X6X6X6X6X6X6X6X6X6X6X6X6X6X6X",
"6X6X6X6X6X6X6X6X6X6X6X6X6X6X6X6X6X6X6X6X6X6X6X6X6X6X6X6X6X6X6X6X",
"6X6X6X6X6X6X6X6X6X6X6X6X6X6X6X6X6X6X6X6X6X6X6X6X6X6X6X6X6X6X6X6X",
"6X6X6X6X6X6X6X6X6X6X6X6X6X6X6X6X6X6X6X6X6X6X6X6X6X6X6X6X6X6X6X6X",
"6X6X6X6X6X6X6X6X6X6X6X6X6X6X6X6X6X6X6X6X6X6X6X6X6X6X6X6X6X6X6X6X",
"6X6X6X6X6X6X6X6X6X6X6X6X6X6X6X6X6X6X6X6X6X6X6X6X6X6X6X6X6X6X6X6X",
"6X6X6X6X6X6X6X6X6X6X6X6X> < 6X6X6X6X6X6X6X6X6Xf w < 6X6X6X6X6X6X",
"6X6X6X6X6X6X6X6X6X6X6X, C.Z.O 6X6X6X6X6X6X6X6 A.S.H.1 6X6X6X6X6X",
"6X6X6X6X6X6X6X6X6X6X6Xu V.M.Z.o 6X6X6X6X6X6 E.Y.T.K.r 6X6X6X6X6X",
"6X6X6X6X6X6X6X6X6X6X6X0 m.E B.D.X + : :   J.R.U.5XL.h 6X6X6X6X6X",
"6X6X6X6X6X6X6X6X6X6X6Xi B.3X| }.w.&XoXoX&X+.W.{ 4XI.x 6X6X6X6X6X",
"6X6X6X6X6X6X6X6X6X6X6Xi n.&.OX&X.X&XoXoX$X$X%Xc.1.P.k 6X6X6X6X6X",
"6X6X6X6X6X6X6X4 4 y 6X0 N.$X&XoX&XoX$X&X$XoX$X#X9.P k 6X6X6X6X6X",
"6X6X6X6X6X6X$ 2XF.b.  G.~.$X.X.X.X&X$X$X$X.X.X$X`.*Xe 6X6X6X6X6X",
"6X6X6X6X6Xa <XX. .M 4 I t.&X$X(.&X&XoXoX.X&X`.&X%X:.K k 6X6X6X6X",
"6X6X6X6X6Xp 1Xm s 6X4 U u.&X.Xx &X&X`._.oX|.2 -X%X#.L k 6X6X6X6X",
"6X6X6X6X6Xi v.n & 6X4 Y C `..Xz &X_.;.[ (.Q.t &X$XO.J l 6X6X6X6X",
"6X6X6X6X6Xi >Xb & 6X8 T r.`._.$X$X|.B N `._.=X$X|.0.Z k 6X6X6X6X",
"6X6X6X6X6Xi z.@.- 6X6X% % -.`.^._.2.&.*.s.`._.!.<.V l 6X6X6X6X6X",
"6X6X6X6X6Xs l.,X= 6X6X6X6Xr o...] -.*.=.2.:.>.,.1 1 6X6X6X6X6X6X",
"6X6X6X6X6X6Xu j.:X6X6X6X1 1 6 # : . . @   # . 3 6X6X6X6X6X6X6X6X",
"6X6X6X6X6X6X9 _ h.7 % % y.5.$.' ( ^ ! Q ~ / ) ` t 6X6X6X6X6X6X6X",
"6X6X6X6X6X6X9 S W 5 ;X{.e.oX@X8..X+X8.4..X X X%.h 6X6X6X6X6X6X6X",
"6X6X6X6X6X6X6Xq * A x.k.`.oX.X.XoX$X$X$X%XXXXX>.x 6X6X6X6X6X6X6X",
"6X6X6X6X6X6X6X6X; G a.[.'.`.`._.&X$X|.&X&X.X|.7.k 6X6X6X6X6X6X6X",
"6X6X6X6X6X6X6X6X6Xd R g.i.`.g.p.`.).3.&X.Xj f.F c 6X6X6X6X6X6X6X",
"6X6X6X6X6X6X6X6X6X6Xh } v % g 6.D d.j q./.j ].H k 6X6X6X6X6X6X6X",
"6X6X6X6X6X6X6X6X6X6X6Xj j 6Xj j j j 6Xj j 6Xj j 6X6X6X6X6X6X6X6X",
"6X6X6X6X6X6X6X6X6X6X6X6X6X6X6X6X6X6X6X6X6X6X6X6X6X6X6X6X6X6X6X6X",
"6X6X6X6X6X6X6X6X6X6X6X6X6X6X6X6X6X6X6X6X6X6X6X6X6X6X6X6X6X6X6X6X",
"6X6X6X6X6X6X6X6X6X6X6X6X6X6X6X6X6X6X6X6X6X6X6X6X6X6X6X6X6X6X6X6X",
"6X6X6X6X6X6X6X6X6X6X6X6X6X6X6X6X6X6X6X6X6X6X6X6X6X6X6X6X6X6X6X6X"
};
