/* XPM */
static char *_61e78a35b4149d8afd93fbf7881b9e4Jkfq9yMXcVAaIXcx[] = {
/* columns rows colors chars-per-pixel */
"70 70 256 2 ",
"   c #030102",
".  c #0C0101",
"X  c #070509",
"o  c #130101",
"O  c #1B0100",
"+  c #170A07",
"@  c #1A130D",
"#  c #171616",
"$  c #110911",
"%  c #291606",
"&  c #281914",
"*  c #331A18",
"=  c #2E0C07",
"-  c #332518",
";  c #352B27",
":  c #3C3125",
">  c #3A3535",
",  c #30272E",
"<  c #231825",
"1  c #51190E",
"2  c #6F1D0D",
"3  c #592606",
"4  c #4F2F1A",
"5  c #743917",
"6  c #6B3214",
"7  c #4A3727",
"8  c #473736",
"9  c #52312F",
"0  c #7B3927",
"q  c #6F332F",
"w  c #77471B",
"e  c #6A4215",
"r  c #574738",
"t  c #534635",
"y  c #66563A",
"u  c #734D31",
"i  c #7A633A",
"p  c #4B3A46",
"a  c #574748",
"s  c #595658",
"d  c #524E4C",
"f  c #675957",
"g  c #6F514A",
"h  c #7C6857",
"j  c #726551",
"k  c #6F5765",
"l  c #676867",
"z  c #756566",
"x  c #767072",
"c  c #5D5D65",
"v  c #343744",
"b  c #87352D",
"n  c #893F1A",
"m  c #85562D",
"M  c #885739",
"N  c #8C4C33",
"B  c #AC5234",
"V  c #8C6539",
"C  c #AD683B",
"Z  c #9D4B1C",
"A  c #CF5F3B",
"S  c #C8643D",
"D  c #D2633D",
"F  c #90534C",
"G  c #A75751",
"H  c #9A6848",
"J  c #876A56",
"K  c #88755B",
"L  c #936E4E",
"P  c #BA6846",
"I  c #B86858",
"U  c #A77755",
"Y  c #B57B57",
"T  c #AE704D",
"R  c #897765",
"E  c #997575",
"W  c #8D6E6D",
"Q  c #B47769",
"!  c #895C63",
"~  c #D15C4F",
"^  c #E55E4E",
"/  c #C86846",
"(  c #D36B4A",
")  c #D76647",
"_  c #C77649",
"`  c #C86955",
"'  c #D76854",
"]  c #C87957",
"[  c #D77854",
"{  c #D37A4E",
"}  c #E36849",
"|  c #E36854",
" . c #E07551",
".. c #D16F67",
"X. c #DC6364",
"o. c #983E47",
"O. c #B48658",
"+. c #988479",
"@. c #94866F",
"#. c #B78869",
"$. c #BB926A",
"%. c #A88B77",
"&. c #B89879",
"*. c #AD8D6E",
"=. c #BBA376",
"-. c #9C8158",
";. c #C88859",
":. c #D88558",
">. c #D19251",
",. c #E48B5D",
"<. c #C88A68",
"1. c #DA8966",
"2. c #C69466",
"3. c #D79767",
"4. c #D89A75",
"5. c #C79377",
"6. c #E68967",
"7. c #E5956A",
"8. c #E89A76",
"9. c #D1A877",
"0. c #E6A974",
"q. c #F7A67A",
"w. c #F8BA78",
"e. c #F0B16B",
"r. c #FAC77B",
"t. c #797487",
"y. c #897887",
"u. c #7E888C",
"i. c #8B8687",
"p. c #958A87",
"a. c #978E96",
"s. c #A7958A",
"d. c #B89B88",
"f. c #A89998",
"g. c #AC8E90",
"h. c #B9A487",
"j. c #B5AA97",
"k. c #A695A3",
"l. c #AAA4A8",
"z. c #B7A7A6",
"x. c #B7AEB2",
"c. c #9D9BA3",
"v. c #C39784",
"b. c #D89C87",
"n. c #CD9693",
"m. c #D9A787",
"M. c #D7B486",
"N. c #C7A797",
"B. c #DBA994",
"V. c #C9B69B",
"C. c #D8B893",
"Z. c #CAAE8B",
"A. c #E4A787",
"S. c #E6B688",
"D. c #FBB98A",
"F. c #E7B995",
"G. c #F8B999",
"H. c #F4A88C",
"J. c #C8AAA5",
"K. c #C9B8A8",
"L. c #D4BBA5",
"P. c #C8B8B7",
"I. c #D7B8B4",
"U. c #CCA9AC",
"Y. c #E4B9A8",
"T. c #EDB4AB",
"R. c #D89D92",
"E. c #DCC68F",
"W. c #E9C68B",
"Q. c #FAC68B",
"!. c #EAD68E",
"~. c #F3D68D",
"^. c #E9CA95",
"/. c #FECC93",
"(. c #FAC899",
"). c #EDDB95",
"_. c #EBD698",
"`. c #F2D494",
"'. c #FCD394",
"]. c #F4DB95",
"[. c #FBDB95",
"{. c #F4D59B",
"}. c #FDD49B",
"|. c #F6DB9C",
" X c #F9DB9D",
".X c #FBE29C",
"XX c #F6E198",
"oX c #F0E297",
"OX c #D9C5A7",
"+X c #D7C9B4",
"@X c #E8CBA8",
"#X c #FACBA7",
"$X c #ECD4A3",
"%X c #EBD9A7",
"&X c #F5D5A3",
"*X c #FDD5A2",
"=X c #F5DCA3",
"-X c #FCDCA2",
";X c #F4D5AB",
":X c #FCD4AA",
">X c #F3DBAA",
",X c #FCDCAB",
"<X c #E8C7B4",
"1X c #F9C9B6",
"2X c #ECD9B6",
"3X c #FEDCB3",
"4X c #FEDBBB",
"5X c #F8D8B5",
"6X c #EBE3A3",
"7X c #FEE2A4",
"8X c #FDE3AB",
"9X c #FAE6A7",
"0X c #FDE3B3",
"qX c #FDEBB4",
"wX c #FDE3BB",
"eX c #FFECBC",
"rX c #F4E3B8",
"tX c #F6EAB6",
"yX c #BFBEC6",
"uX c #C7BBC4",
"iX c #F4BBC2",
"pX c #C8C4C8",
"aX c #D7CDCA",
"sX c #DAD3D8",
"dX c #D2CCD2",
"fX c #EBC6C6",
"gX c #E8D9CB",
"hX c #FCDAC8",
"jX c #E8D9D7",
"kX c #F6D2D3",
"lX c #FEEBC4",
"zX c #FEECCB",
"xX c #FBE4C5",
"cX c #FFF3C9",
"vX c #EBE3DC",
"bX c #FFECD3",
"nX c #FBE9D9",
"mX c #FFF2DD",
"MX c #FFF3D6",
"NX c #EBECD5",
"BX c #EADAE7",
"VX c #EBE6E8",
"CX c #FCECE6",
"ZX c #FEF2E5",
"AX c #FEF4EB",
"SX c #FFFBEC",
"DX c #F9F9E7",
"FX c #FAEEF7",
"GX c #FEF4F3",
"HX c #FEFBF4",
"JX c #FEF4FC",
"KX c #FEFDFC",
"LX c #F6F9F9",
"PX c #EBFAF4",
"IX c #DCE1DC",
"UX c #BFC9D2",
/* pixels */
" X X X X X X X X-X-X-X-X X X X X X X}.}.}.}.}.-X-X}. X X X X X X[.[. X X-X-X-X}. X[.[.[. X X X X|.|.-X-X-X X X[.[.[.[. X-X,X;X>X-X X-X-X-X-X",
" X X X X X X X X-X-X-X X X X X X X X X}.}.}.}.}.}. X X X X X X X[.[. X X X-X}.}.}.[. X[. X X X X|. X X X-X X X[.[.[.[. X-X=X,X>X-X X-X-X-X-X",
" X X X X X X X X X X-X X X X X X X X X X X X X X X X X X X X X X[.[. X X X X}. X X X X X X X-X X X X X X-X-X}.}.{.[.[.[. X].].|.|. X X X-X X",
" X X X X X X X X X X X X X X X X X X X X X X X X X X X X X X X X[.[. X X X X X X{. X X X X X-X X X X X-X-X-X-X-X X X X[.].].].].]. X X X-X X",
" X X X X X X X X X X X X X X X X X X X X X X X X X X X X X X X X].].].|.|.|. X|.{. X-X X|.-X-X X.X X X X-X-X-X-X=X-X X.XXXXX].XX X-X-X X X X",
" X X X X X X X X X X X X X X X X X X X X X X X X X X X X X X X X X X X|.|.|.|.|.|.-X7X-X{.-X-X*X X.X X X X-X-X-X&X&X|.].].].].]. X-X X X X X",
" X X X X X X X X X X X X X X X X X X X X].].].].].]. X X X X X X-X-X X X X].].|.|.7X8X-X&X-X-X X7X7X X X X X-X-X{.&X&X=X=X=X|.|.-X-X X X X X",
" X X X X X X X X X X X X X X X X X X X X X].].].]. X X X X}.}.-X-X-X-X X X].].|.|.8X0X=X&X-X-X&X8X-X-X X X X X-X-X=X,X0XrXwX0X0X=X X X X X X",
"-X-X X X|.|. X X XW.7X7X7X^.&X&X-X-X{.-X-X`.].7X]. X X7X}.`.-X}.9.:X,X X.X]..X].|.=XqX&X,X-X*X*X,X3X{. X[.~.7X X=X$XwXOX%.d.V.OX0X|.-X-X7X{.",
"-X-X X X X X X]. X7X{.^.^.eX,XeX,X*X,X{.7X-X|.`.7X`.7XW.*XeX2.$.H U {.{. X].7X).=X=XeX>X,X-X-X-XwXeX-X|.].XX~.`.=XwXh.h 9 & o 4 E.qX|.`.|.{.",
"-X-X X X X X X X X8X-X-XeX&XU V 9.0X*X,X,X{.8X`.}.8X{.,X*XO.Y A.M 6 F.,X}.`.9X_.$X>XeX>X=X&X X-X0XwX&X|.]..X!.7X,Xi 4 7 * o & O u  X`.-X7X X",
"-X-X X|.|. X X-X{.`.8X_.$XL -.&.H H 9.eX{.{.^.-X{.W.(.3X2.O.#XM U 6 4.3X}.`.7X_.=X>XeX;X=X{.}.{.3X5X_.-X.X].|.=X*.J 7 o o o . o *.8X-X{.-X X",
" X-X X X`.`.|. X-X{.eX3XM.e 5.Z.m.m.M U 2.m e e m w w 5 N G.Y N I 0 H :X}.`. X|.=X>XeX;X,X-X X{.0X3X_.|. X{.=X-.J d.h - o . . &.eX7X-X^.-X7X",
"|.-X7X7X X X X|.-X&X^.@XL J hX4XQ #.:XU m 9.,X2.O.eX#.G.Y 5 0 G G F 0 :X*X}.|.|.$X%XeX$X,X-X X'.8X0X=X_.|.8XC.e j a 7 * R OXOX%X=XM.7X-X7X X",
"-X X|. X-X7X-X X{.0X0X;Xu -.zXmX4XU #.#X4XF.#X3XY *Xm.A.hX4.N N G G 0 4X*X-X{.|.%X>XlX>X=X{.[.[.-X7X{.|.{.eX*.u 4 o o g MXrX6X).7X{.8X8X`.`.",
",X{.W.W.{.-X-X=X{.&X,XF.u &.hXmXMXG.Y ] S.(.;.lX4.A.#Xb.4XA.4XB F F 0 3X}.{.{.&X8XeXcX0X,X{. X7X-X|._.8X_.wXh %.W 8 O h.rX_.).oX].7X`.-X{.7X",
"4X&.6 m 5.eX_.9X|.-X*XF.u *.bXMXmX1X6.,._ e.7.q.4X<.4Xm.:Xq.Q.D.B B w ,X0X&X,X-X=XqXqX=X,X&X,X&X-X,X X_.).cXh +.f r % &.eX]..X].|.|.-X-X|.|.",
"&.M 4XMX$.O.qX=X=X-X,XS.6 v.DXDX1X4.:./.w.e.q.:.4XA.F.B.H.:.>.w.q.2 w =X8X8XW.,X{.|.9X|.-X-X,X0X&XW.`..X!.cXh 8 . . : OX9X_. X7X X=X-X=X|.|.",
"*.L zXzXm.H =.9X=X&X0XA.6 B.bX@XT 0.e.e.e.w.7.Z A.G.@XZ.F.T C /.7.P e 8XE.qX-X0X{.`.7X|. X-X_.*X0X*X X].!.eXh & $ . : 2X_.7X].|.7X7X-X X X X",
"5XL V Y #.3Xi E.9X_.,XM.w #X4X$.0.e.r.r.w.Q.w.;.A.xXzXcX;X$.*XD.(.0.V $X0X8X0XW.-X X`._.`.7X-X{.S.,X7X].9XrXj . . . : xX%X9X7X7X8X7X-X|. X-X",
"$X$Xm U zXxX*.i >X>X,X9.6 A.G.2.e.r.r.r.r.W.(.:X@XDXmXDXbX<XJ 6 <.S.w U eX%XqXqX-X7X|. X].`.W.O.9.}.}.`.=XrXR + . . + K.2X>X8X8X8X7X-X|. X-X",
"=X,X#Xm <.b.F.*.=.8XqX9.3 Y 4.q.e.e.e.D.O.3 4 %.gXSXSXZXSXJ.- o = U w -.eXqXeX8X}.(.-X].9X.X X0.'.}.'.'._.rXV.- + + . @.lX%X8X-X7X-X-X X X X",
"=X{.eX(.3 m.MXZ.i >X0XS.5 _ 7.D.r.e.'.<.3 4 o + pXKXVXKXFXa p.* %.3 U L C.%XqX&XwX(.eX_._.!.[.}.'.'.'. X-X>XOX- . . + h zX$X9X8X X-X-X-X X X",
"oX|.{.:XN b.B.F u rX&X9.w C C { >.>.;.3 %.fX. x l KXKXGXFX8 X . 4 g J u C.wX%X0Xm 5 &X$XqX6XQ.-X'.7X'.~.8X>X@Xy - . . 7 2X%X9X_.|. X-X-X X|.",
"XX].{.3X5.3 H &.J &.0XM.3 7.,.6.e.Q.G.3 O + o X p LXKXKXGXa . o g +.&.4 2X2X2XL N = 6 5XrX$X*X*X/.[.'.-X=X%XlX@.t . . % OX8X9X!.`. X|.{. X X",
"!.7X`.3X5.6 b.bXL C.eXM.6 T D.G.q.7.O.u 9 o . a s KXIXsXDXx.g.g.J.ZXL.4 Z.zX&.4 5.u O 7 rX2X3X,XS.W.-X=X,XC.rXh.% o . O 2X>X!.XX X X X|.|.|.",
"~.`.8XwX#.F 1XB.M U wX&Xm C / S B P O.#Xd.W f l.CXZXDXK.gXSXHXZXgXhX%.d.zXMX*.L 1Xg = . y zX@X#X-X-X0X^.rXcX2XMX% + . % <X0X]..X X X X-X{. X",
"7X`.=X&X;Xu N u N 6 5XwX,X6 P :.D.*XcXMXhXgXHXHXSXgXDXV.2XgXSXSXgXd.&.xXwX*.F 1X1XN.O + . j MX4X;X,X5XrXh.y j r % . . & <X5X]..X X{.-X-X{. X",
".X[.=X$XlXU 1 Q B.F :X;X:XF.H 8.4.G.F.&.v.I.SXDXNX@.E 4 r nXSXmXL.%.2X@XlX2.H 1XY.J.h . . . R 2X2XrXOXR K 7 + o % O * O <XwX`.[.`.}.-X-X X{.",
"~.[.9XqX%X@XM T.G.0 B.xX@XwXm.= N T.B.Y.Y.AXDXHXDXHXg.W vXGXaXs.r h.rX%X8Xm 4.1XhXd.a.+ + . - 7 t R 7 t 8 . . : & & + & W xX8X~. X7X-X X7X-X",
"[.7X^.%XwX;X6 Q b 5 M xXwXC.u 5 2 G N.I.CXCXKXKXJXJXJXBXJXl.k p d.lXE.qX9.6 G.A.hXp.z ; . 8 : . y 7 - + . a 8 @ o + $ f = *.,X X-X7X^.W.8X8X",
" X`.8X_.$XlXL 3 G I 6 #.#.3 H H Q 1 q +.g.W i.x y.x y.y.x k 8 g 2XrX%XqXV V #XU * z s > o + . x d . X $ i., o * = r E g.= o =.qX{.{.9.9.-X7X",
"-X{.-X|._.qXM.5 I G b 0 2 B :.C 4.H.L s.I.f.i.c.i.c.a.k.g.k F 9 i cX@XlXK J %.= o p l.> . . p.z.@   # l , a F 1 G I T.v.O % . j.rX>X_.^. X7X",
"8X{.|..X_.7X=Xm.5 b 0 N ~ B [ 6.1.hXnXB.N.aXdXdXdXdXdXaXW ! iXkXJ J xXbXh r * .   X t.,   l.HXd .   u.l d a q G ....1Xm.% . . + L.%X0X8X|.7X",
"-X`.|.9X=X&X3X3XA.b b ` ` [ q.:.:.<.4XbXZXAXCXjXdXpXsXz f CXJXGXbX-.V.OX% o . . . X     l.KXAXf   > i.s d o q Q Q H.1Xv.% . X . r %.OX$XqX_.",
"'. X|.{.=X0X,X#X5XG B ' G.H.q.:.(.<.Y 5.Y.fXZXKXJXBXuXk P.GXGXGXSXK N.R . o + + #     c.FXKXKXpX# # l #   + O ! R.1XT.J o .   + . h K OX>XqX",
"[.7X|._.9XeXwX3XS.5 [ 6.lX4.[ _ 0.8X(.<.#.N.J.P.GXdXuXs VXKXKXHXnXj s.- % o a > + , a.JXKXFXKXsX+ X X     . O 1 T.T.U.4 . . X   X > +.R 2X%X",
"'.[.|.=X8X0X3XwXF.5 / H.:X4.B n C Y (.zXB.*.g E uXx.l.p VXKXKXKXgX+.R . . + f.vX& # KXLXKXVXKXP.@           + o E fXE O . . X X X < l.h V.rX",
"~.[. X8X5X;X;X:XU O._ 6.,X3XT 6 ;.Q.3Xm.v.mXAXP.f z i.$ l VXdXvXs.h r o . f & @ . - KXKXFXJXKXVX; . @       . . 9 I.8 o o     $ X v sXp.j.xX",
"XX[.-X>X%X5X3X#X6 2.D.B A.:X4X6 m.zXm.&.mXSXHXAXKXf.s i.t t p.R g j.8 + . f s . . d vXHXKXJXLXl.; & @ #     . . + a $ . <   X X < t.dXP.@.2X",
"[.[.{.,XrXrX5X:X3 Y ,X;.4.:XbXL 5 Y.v.fXAXHXGXKXHXKXaX+.aX+.j h J.J.p.K.d p.p.s x P.ZXHXHXKXyX# GXR . ; .       X X o f y.. +   t.dXdXx.g 2X",
"[.[.}.=X0X5X>X&X3 T *X,X<.G.Y.Y.9 q E CXjXCXKXKXHXCXHXR h.nXhXnXZXN.+.ZXCXGX+Xz.gXZXSXvXGXKXx.X s : - z + .         X x.P.f . @ a.dXx.l.r xX",
"[.[. X-X>X%X%X;X5 N M.#Xb.<.N.I.n.9 9 U.BXjXVXGXHXHXjXh N.hX1X4X1X<Xs.jXaXKXKXVXHXnXj.+XAXJXx.X . . & f.@ .   X     8 z.+.j s.x pXpXaXK.y @X",
"[.[.}. X=X$X=X,XC M 5.#Xb.b.1Xd.fXU.k p s y.pXVXvXZX+.J @X5X3X(.3XzXh.jXHXHXKXKXZXSXK.ZXHXKXFXs > ; s.f & . .       x z.J V.xXK f aXP.J Z.lX",
"-X}. X X|.|.=X0Xm H #.v.CXCXnXCXz.a.k < < p k p.s.r t h.lX,X{.qX0XcXV.R HXDXGXHXHXh 4 +XSXCXKXVXl.f.! * o . + X   . z W N.cX0XrXg 7 h h.5X>X",
"-X-X X].].].-X0Xm H hXv.n.hXY.g.f., a z p k f 7 o R hXlX&X=X-XqX{.^.2X%.j.KXHXKXHXy y E +XjXKXKXAXHXjXf.W o .   X > W N.bX^.E.qX2XOX@XwX=X8X",
",X-X|.].XX]. X8XU 6 n.kXW W J J.z., z BX! p E W u <X5XwX8X9X9X!. X=XlXj & aXKXGXCXW E L.SXHXHXDXKXvXfXJ.N.I.f > , f ! hX4X,X.X].>XeX$X&X X|.",
",X-X|.].].].}.,X@X1 q T.fXU.fXJ.8 x.a f.kXE g g <XxX;XcX_.!.qX).].&XrXj - # a.KXHXCXI.ZXCXGXHXKXKXJXP.P.U.g.P.p.x f OX5X&X-X!.).=X$X8X|.7X`.",
"-X}.|.`.`.].-X,X;Xu 9 9 W k.a., p.vXz.t K.OX%.2X5X,X8X{.9X|.8X_.=X>Xy t #     x aXJXJXJXJXJXKXKXLXBXdXx.uXx.f d j j.rX6XoXoX).oX|.&X|. X X X",
"}.}. X'. X X-X-XwX*.d.E a , p p K.zXxX@.7 y Z.wX8X9X7X_.|._.^.8X,X-.j d   X X   z k.x.k.dXBXUXIXpXsXuXl.y.s a : j.@X6X).].7X7X|. X X X X X X",
" X X X X X X X=X>XxXy gXsXuXBXi.y rX%XrXwX;X^.,X,X|.-X|.8X8X0X3X*.L.HXGXt.X     & P.k.x l.u.v s s s d # X + g K.4X,X-X/./.}.-X}.}. X X X X X",
" X X X X X X|.=X>X2X-.@.CXVXdX+.L qX$X0X,X^.W.*X-X{. X`.-X{.0X*.V.SXKXKXFXl X . + ; dXsXsX> X           . . g bX3X*X-X}.Q./.*X}.}.|. X X X X",
"|.|. X X X].|.=X$X>XrXy R f.R R ^.`.W.|.{.7X8X^.}.-X7X{.,X0XC.K DXPXLXPXKXpX  . . s c x c s x $   #   + . . %.wX;X{. X7X`.`.-X-X|.|.|. X X X",
"|.|.|.|.|.|.].|.9X>X$XrXJ r K OX7X.X.X'.}.}.}.-X`.}.-X}.*XcXU h.DXPXLXKXVXf.. % +.SXx.d x.KXFXl.      o . y 5X$X9X|.].XXoXoX6X|.|.|.|. X X X",
"=X|.|.|. X X X X-X{.,X;X#XhXbX:X}.r.[.7X}.}.8X}.-X-X,X*X*XwX#.&.DXHXVXjXg.! W <XbX+Xf.BXJXJXJXJXk . + . - L.wX8X X.X].).6X6X%X%X|. X X X X X",
"=X=X|. X X X X}.'.8X}.:X3XwXG.3XQ.'.Q.Q.Q.0.3.3.3.;.3.3.3.<.<.q V.+XfXg.q G R.B.d.K jXLXKXJXJXGXjX8 O O L wXF.}./.-X-X[.-X=X{.9X X X X X X X",
"=X|.|. X X}.[.}.-X/.D.D.H.8.8.7._ { { _ _ _ _ / S / / P P ` ` I 0 u F o.I ..I T u OXHXPXLXLXLXjXnXg 1 F <.] _ { { ,.7.8.q.D.(.:X-X7X-X{.|.7X",
"=X|.|. X X}.'./.3.;._ _ / / / / ( ( ( ' ' ' ( ' ( ( ( ( ( ' ' ` I I ` ~ X.X.` <.u 2XDXLXLXVXPXx.g F G I P / ( ) D D ) ) ( [ 6.1.3.W.|.-X X X",
"|.|. X X}.}././.;.P P _ / _ {  .| ' ' | | ' ) | ) } ) ) ) ) ' ) ' ' X.X.X.^ / ` N v.kXKXGXsXf.j F ` ..[ [  .) A } ) ) A / / ( _ 9.W. X X|.{.",
" X|. X X X}.}.}./.w.0.3.{ _ S C / ~ ~ ~ ~ ' | | } } } } } | | ' ' ' | ^ ^ | } ( P N Q fXI.E u F ..' ~ / ( ) D  .) ( ( ( [ 6.7.7.}. X X|.|. X",
" X X|.|. X X-X}.-X/././.Q.D.D.D.[ 6.6.[ / / / / S D D D / / ( ( ) ) ) ^ ^ } } D ( ` b 0 q b ....' ..' (  .:.{ :.H.D.D.G.(.*X-X}.-X X X X7X7X",
" X X{.{.|.|. X X-X}.}.-X}.}.}.}.(.*X(.H.7.7.1.:.:.:.:.:.:.1.1.6.{ ( (  .( A  .,.6.] G ......` / P ` [ q.(.-X*X}.,X,X3X,X-X-X].!.`.|. X X X|.",
" X X|.|.|.|.=X|.7X|. X7X X X X X[.7X7X}.}.*X}././.'.'.'.(.*X:X:X(.0.3.4.3.>.Q. X-X(.#XF.#X4X0.0.S.S.(.-X[.'.}.-X&X&X;X>X=X7X.X.X|. X X X`.`.",
" X X X X X=X=X|.=X).|.=X|.|..X X]._.].|.7X7X X X`.[. X[.}.*X-X-X-X-X{.-X{.`.7X~.`.8X>X;X0X{.].9X7X*X}.[.`.[.7X{.-X,X,X=X&X|. X].|.|. X-X7X X",
" X X X X|.|. X X X X X X X X X X].].]. X X X X X|.|. X X X X|. X X X X X X X|.|.|.|.&X&X&X|.|.|. X X X X X X|.|. X-X-X=X|.|. X X X X X X X X",
" X X X X X X X X X X X X X X X X X X X X X X X X|.|.|.|.|.|.|.|.|.|.|.|.|.|.|.|.|.|.|.|.|.|.|.|.|.|.|.|.|.|.|.|. X X X X|.|. X X X X X X X X",
" X X X X X X X X X X X X X X X X X X X X X X X X X X X X X X X X|.|.|.|.|.|.|.|.|.|.|.|.|.|.|.|.|.|.|.|.|.|.|.|. X X X X|.|.|. X X X X X X X",
" X X X X X X X X X X X X X X X X X X X X X X X X X X X X X X X X X X X X X X X X|.|.|.|.|.|.|.|. X X X X X X X X X X X X|.|. X X X X X X X X",
" X X X X X X X X X X X X X X X X X X X X X X X X X X X X X X X X X X X|. X X X X X X X X X X X X X X X X X X X X X X X X X X X X X X X X X X",
" X X X X X X X X X X X X X X X X X X X X X X X X-X X X X X X X X X X X X X X X X X X X X X X X X X X X X X X X X X X X X X X X X X X X X X X"
};
