/* XPM */
static char *_234_5facdbfedf623a02c8b7feab2ea128307670b56e63701fa549094e9950361246[] = {
/* columns rows colors chars-per-pixel */
"60 60 256 2 ",
"   c #025B00",
".  c #004C00",
"X  c #056800",
"o  c #146E00",
"O  c #077700",
"+  c #197800",
"@  c #0E7914",
"#  c #267B00",
"$  c #2B7406",
"%  c #098802",
"&  c #1C8D00",
"*  c #168702",
"=  c #099303",
"-  c #159500",
";  c #1C9401",
":  c #1B9D02",
">  c #179904",
",  c #199615",
"<  c #148719",
"1  c #2C8500",
"2  c #2C8B00",
"3  c #238702",
"4  c #348B00",
"5  c #388801",
"6  c #249400",
"7  c #259B01",
"8  c #2C9C00",
"9  c #299705",
"0  c #359401",
"q  c #3B9500",
"w  c #369B02",
"e  c #268E14",
"r  c #17A404",
"t  c #13A918",
"y  c #2BAB01",
"u  c #28A604",
"i  c #37A603",
"p  c #2BB303",
"a  c #39B404",
"s  c #2AA814",
"d  c #38B616",
"f  c #33AE15",
"g  c #1D9129",
"h  c #1AA828",
"j  c #1AA937",
"k  c #2EB129",
"l  c #319833",
"z  c #468D00",
"x  c #439300",
"c  c #439C00",
"v  c #4C9C00",
"b  c #4C9600",
"n  c #559900",
"m  c #528E00",
"M  c #639B00",
"N  c #44A301",
"B  c #4CA400",
"V  c #44AB01",
"C  c #4CAB01",
"Z  c #4BAA0B",
"A  c #53A400",
"S  c #5DA600",
"D  c #54AB00",
"F  c #5BAB00",
"G  c #58AC0B",
"H  c #4BB300",
"J  c #47B905",
"K  c #54B401",
"L  c #5CB401",
"P  c #59BB06",
"I  c #47B716",
"U  c #58B714",
"Y  c #47AB15",
"T  c #64A500",
"R  c #64AC00",
"E  c #6AAC00",
"W  c #6CA400",
"Q  c #75AC00",
"!  c #63B401",
"~  c #6CB401",
"^  c #64BC01",
"/  c #6CBC01",
"(  c #64BA0C",
")  c #73BC01",
"_  c #77B801",
"`  c #65BB16",
"'  c #6FB51C",
"]  c #4BB52D",
"[  c #64BE20",
"{  c #3EC012",
"}  c #49C509",
"|  c #57C607",
" . c #4AC617",
".. c #5AC917",
"X. c #59D419",
"o. c #5BD20D",
"O. c #6BC301",
"+. c #68C807",
"@. c #73C301",
"#. c #7BC301",
"$. c #73CB03",
"%. c #7CCB02",
"&. c #78CA0B",
"*. c #67D408",
"=. c #7AD303",
"-. c #77D809",
";. c #66C817",
":. c #77CA16",
">. c #67D61A",
",. c #78D718",
"<. c #79E518",
"1. c #73E512",
"2. c #5BCA27",
"3. c #5BD524",
"4. c #49C436",
"5. c #58C936",
"6. c #68CB26",
"7. c #75CD2A",
"8. c #67D925",
"9. c #76D925",
"0. c #71D535",
"q. c #6BE42B",
"w. c #79E428",
"e. c #77E536",
"r. c #78F230",
"t. c #70D64A",
"y. c #77EC43",
"u. c #5CDA4A",
"i. c #85BA02",
"p. c #91B500",
"a. c #84C401",
"s. c #83CC02",
"d. c #8CCC01",
"f. c #8AC809",
"g. c #93CD01",
"h. c #99C905",
"j. c #84D301",
"k. c #8BD502",
"l. c #84DC02",
"z. c #8CDA02",
"x. c #88D70C",
"c. c #94D201",
"v. c #94DC01",
"b. c #9BDC02",
"n. c #93DC0A",
"m. c #9CDC0C",
"M. c #98D408",
"N. c #86C717",
"B. c #84DB14",
"V. c #88D818",
"C. c #98D917",
"Z. c #92CE14",
"A. c #A2DB01",
"S. c #A4DA09",
"D. c #B5DB02",
"F. c #A6DA16",
"G. c #ACD60F",
"H. c #8CE303",
"J. c #88E40A",
"K. c #9CE403",
"L. c #94EB02",
"P. c #97E709",
"I. c #9AF10A",
"U. c #88E517",
"Y. c #93E413",
"T. c #9CE413",
"R. c #9BEB13",
"E. c #93E51B",
"W. c #9DE51B",
"Q. c #93EB1B",
"!. c #98EB17",
"~. c #9CF415",
"^. c #86F317",
"/. c #A3E402",
"(. c #ACE402",
"). c #A5EA03",
"_. c #ABEB03",
"`. c #A4E30C",
"'. c #A4EB0C",
"]. c #ABEC0C",
"[. c #ADE60C",
"{. c #B2ED03",
"}. c #B2EC0B",
"|. c #B7E606",
" X c #A3F30C",
".X c #ACF30B",
"XX c #A6F506",
"oX c #B4F20C",
"OX c #BAF408",
"+X c #A4E413",
"@X c #ABE414",
"#X c #A4EC13",
"$X c #ACEC14",
"%X c #A4E41B",
"&X c #A3EC1B",
"*X c #ABEC1C",
"=X c #ADE41A",
"-X c #B5EA17",
";X c #ABF215",
":X c #A3F21B",
">X c #ACF21C",
",X c #A7F817",
"<X c #B2F314",
"1X c #B8F818",
"2X c #86DA26",
"3X c #95DB27",
"4X c #8EDA35",
"5X c #A1DB24",
"6X c #88E626",
"7X c #98E925",
"8X c #8AF629",
"9X c #99F428",
"0X c #88E836",
"qX c #98EA33",
"wX c #84F938",
"eX c #98F737",
"rX c #A4EB24",
"tX c #ABEC24",
"yX c #A7E628",
"uX c #B5EB25",
"iX c #ACF323",
"pX c #ABFB2B",
"aX c #A5F529",
"sX c #B4F424",
"dX c #BCFC24",
"fX c #B3F32B",
"gX c #B9F828",
"hX c #A7E933",
"jX c #A8F834",
"kX c #B7FB36",
"lX c #B7E934",
"zX c #C6E906",
"xX c #C6F707",
"cX c #D7F907",
"vX c #C8F919",
"bX c #DBFD1C",
"nX c #D7FC16",
"mX c #CDED10",
"MX c #E4FB07",
"NX c #F3FD0C",
"BX c #E7FC17",
"VX c #F3FD15",
"CX c #C7FB28",
"ZX c #D7FC27",
"AX c #C9FD37",
"SX c #D7FD37",
"DX c #C4EB26",
"FX c #E5FE26",
"GX c #EAFF30",
"HX c #96F946",
"JX c #88ED4B",
"KX c #B2FD46",
"LX c #91FA69",
"PX c #CCFE43",
"IX c #CFFF4B",
"UX c #D4FF55",
/* pixels */
"qXqXqX5X_ Z.IXDX1XCXCXR.) 5 5 :.iX1X1X#X+Xm.n.C.+X+X=X$X}.(.A.|.}.$X+XT.x.) i.tXuXuX=XCXIX>X#.^ / k.R.Y.Q.9X7XU.6X8X0Xe.",
"qX6X2Xb m C.kXAXAX$X#.T v F ( / s.#X1X>Xn.~ R Z.fX%XS.`.[.|.(.A.}.oX$X*X&Xk.) _ M.DXSXCXsXY.$.^ j.l.Y.!.Q.U.6X9X0X9.K c ",
"` G x + S pXiXfXuX_ T _ V.KXhX^ O.=.U.aXjX%.~ x.fXrXS.S.[.{.|.|.(./.].,X&X:Xn.Q i.uXPXAXrXx.$.=.Y.I.Y.U.V.U.,.^ q 2 1 2 ",
"1 4 + v E.pXkXW.) n T &.3XaXaXE.-.-.O.B.jX&.S ) rXtXsX*XS.A.S.{././._.#XR.iXkXW.f.g.yXKXrXO.P <.^.^.J.-.B.,.C # # 1 N P ",
"1 x B 6XjXjXpXB.z ~ V.V.f.a.j.7XeXHX8X9.V.L v S Z.%XfXuX=Xm.S./..X).).;XP.!.aXjXx.~ / 2X&.N V >.~.1.*.U.,.B 4 q ( ` :.e.",
"( F 2XjXKXjX%.D D rXKXyXaX&Xa./ +.>.| H D N x n R _ d.%XfXkXfX*X1X'.I.,X,X9X7X7X+.A B D w w | r.1.<.<.>.H w K 2X0X9.:.:.",
"F.n.jXkXKX7XD A 9XpXpXR.>XgX+X~ V i K O.+.x.V.a.~ E E _ f.7XyX7XY.n.j.Y.7XU.9.w.U V V i 6 8 8.r.X.r.1.a i +.0X0X0X2X,.+.",
"vXGXCXSXlXn n V.pXiXgX>X'.sXsXZ.^ K -.qXaXjXkXtX%Xf.E z x A F L v A c 0 w 8 w J 6.I I i ; y X.e.q.1.J 8 K 0X0X,.,.V.9.*.",
"cXcXBXZXG.Q i.uXgX:X'.'.;XdXgXm.@.s.Y.&XiXtX*X+XkX%X7XC.! 5 q L ( L D L N + o 8 5.4.4.d u { q.e.3. .i J 9.,.w.,.^.<.<.*.",
"MXMXVXnXnXA.G.dXCXdXdX1Xc.d.g.d.d.d.c.S.-X1XuX*X%XrXhXqX,.( ;.0XJX4X6.U 6.0.I 6 s 4.u.{ u  .q.q.X.V 0 | 6X<.<.-.,.*.*.+.",
"NXNXNXMXBXmXzX|.|.h.g.g.g.b..XxX}.(.A.M.A.`.*XuX%XrXaXjXeX2X,.9.U [ 6.;.6.JX0.] 9 k 4.] f 2.8.P N 0 q P *.>.<.1.*.| } | ",
"NXNXNXMXNXMXcXD.h.i.i.S.1XvXxXOXvXvXzXA.g.g.+XtXaX7XV.V.V.:.+.F B 0 x D P ,.JXy.I 8 9 f i i V v A / &.L N J ,.,.} J a } ",
"BXVXVXMXVXBXnXzXh.p.G.vXvXxXxXOXmXvXCXvX@Xc.s.j.7XV.$./ ^ $.+.^ ,.&.O.! B ! 9.0X2.6 & 0 1 # b ~ C.fXKXV.L V H  .J y p a ",
"BXFXVXmXBXBXBXBXD.D.zXmXzXzXxXnXOXvXCXAXkXx.~ N ^ $.B.B.V.E.E.7XaX!.aX&Xs.L / ,.0XY 0 x x M f.=XCXAXPXkX7XK 6 u I f u u ",
"mXbXFXbXGXFXFXFXcXzXcXcXcXxXxXD.-X-X+XtXW.%.D c B ^ ,.Q.7X&X>X:X,XI.K.1XdXP.) ^ 9.G U 2X3XlXAXZXZXvXCXPXKX` + : 4.k k s ",
"zXD.D.mXGXZXZXFXMXmXcXzX|.xXCXCXsX+Xd.) / ! / -.O.^ ^ @.%.x.n.K.K.vX1X).oX<XT.s.S A 4XUXIXAXZXGXcXBXbXgXKX7.+ 9 4.4.k s ",
"MXcXzXcXzXnXZXbXZXxXOX1XCXdXrXx.s.) ! ) V.tXkXfXC.C.x.i.R R @.j.(.OXOX}.$XgX*XM.E M AXSXSXGXVXcXMXMXcXUXKXn 2 Y 5.] s 7 ",
"zXcXcXmXzXnX|.|.vXvXdX1Xn.a.#.) =.j.x.W.iXsXuXuXCXuX=X`.m.c.k.v.{.OXOX}.$XdXgX*Xd.Q vXZXbXBXVXVXMXVXZXCXf.5 4 N a i 8 9 ",
"cXcXBXzXD.mXp.M.gXCXgX#X) ~ %.n.I.I.,X<X.X}.OX1X}.}.OX1X1X.X'././.(.{._._.].<X$XS.i.vXbXbXMXMXMXmXGXZXG.M $ A U V V J } ",
"cXzXmXZXAXh.M p.uXkXAX+Xa.#.'.dX.X.XOXXX(.{.{.xXOX}.{._.).)..X1X_._.{.OXOX<X$X<X{.g.1XbXBXnXcXnXZXDX=Xi.W _ V.,.,.,.,.<.",
"|.vX1XSXPXi.W i.F.yXuX-Xb.S.#X<X_.].}.OXOX{.(.A.{.}.OXOX<X].'.#X<X_._.;X<XoX<X<X(.M.OXvXZXnXbXZXCX5Xi.i.Z.hXjXB.8XQ.J.<.",
"-XAXkXtX5Xi.Z.Z.C.Z.M.M.m.$X1X@X1X}.}.}.OX|.(.A.c.g.A.$XdXgX*X+XsX#X`.S.[.-X-XvXA.b.<XCXCX<X<X@Xh.p.3XlXhXhX7X!.~.J.l.H.",
"3X3XC.~ #.V.rXiX$Xb.c.a.g.=XCXuXdXDX|.|.|.}.}.{.A.c.a.a.d.m.uXkXjXlXuXyX%X=XuXsXS.S.F.S.+Xa.s.~ E i.hXlXhXC.Z.aXn.J.H.J.",
"! 5 v x f.pXpXiX1X).b.k.d.@XuX=X=X-X-X-X}.[.{.oX_.(.`.M.d.i.i.N.3X3X3XC.Z.Z.h.h.F.G.d.W T n ! R ~ ~ _ f.7XrXs.x.%.n.!.:X",
"L :.&.L ~ n.iX~.1X).XXK.b.`.m.-X-XA.A.].].).XX.X'..X>X1X>Xm.f._ ~ _ E E Q Q i.M.=XF.M.a.) &.B.B.x.P.j.@.%.@.S b n &.aXjX",
"-.E.9X7X@.! @.K..XK._.1XvX/.c.-Xm.a.a.T.:X#X~.~.,X~.T.&XiXpXfXtX&.T z n f.F.+X@Xm.T.T.C.C.E.7XY.H.L.l.j.x.&.n # $ ( qXqX",
":XR.aXpXE./ ~ s.T.;X/./.)././.`.rX) ^ V.9XjX9X9X9X7X9XaXjXyXZ.s.~ ~ ~ j.iXdX;X$X/.].'.#XR.R.Y.J.I.L.XX~.9X7X;.x + B 7.4X",
" XI.K.:XiX%Xj.) k.dX#Xb.)..X<X:XqXP N K ;.......| ..;.;.F b z z #.n.iXgXsX XK.K.k.k.k.l.H.L.R.I.K.L.,X,XQ.9X0X;.2 w Y Y ",
").).XX'.&X&XC.d.s.#XK.>X1Xb.#XaX0XZ 8 8 7 ; ; ; 8 8 6 3 1 5 S _ &XsXiX XK.v.k.l.k.l.j.s.j.l.H.K.H.v.I.R.J.8XHXe.Y i 9 6 ",
").)./.'.+X`.m.T.d.b.T.#X&X+XrX7X6.d y f s r > > - & 6 N ;.2XqXkXiXiXR.k.z.z.v.K.I.K.K.K.v.k.j.j.M.n.k.l.U.8XwXq.d u ; & ",
"}./.A.`.[.]._.'.v.v.;X*XW.jXhX;.i r u u r r r r % = J e.HXjXaX7XW.&Xm.j.z.T.:XpXR.P.R.~.,XR.K.T.Z.Z.#.^ +.*.| } u - = = ",
"+X-XuX+XS.[.[.).c.R z.aXhX0X( i u r r r r r > - - y ..wXeX9X7XiXfX7X%.) x.9XpXpXR.R. X,X;X#XP.R.rXjXB.K J p u p p u u s ",
"fXC.yXhXC.5XsXb.c.k.&.9.0X..8 > t t t r = : w q 5 v G R ~ ) V.3X6X+.! V.eX9X~.~.I.).K.K.XXXXXXL.!.9X8X*.a y p p p p a J ",
":.~ ' hX5XC.%XT.j.Q.6X>.I r = r t t t = * Z 4X4X3X3XN._ W n m n n L &.6XeXjX9XJ.,X,XXXXXL.L.I.,XQ.eXwX>.p > r p p p { } ",
"1 + 5 ' 4XV.=.H.=.1.+.i 7 r r r t k , X + 7.UXUXAXCXCXZXAXDX=Xp.R D | J.9X9X6XQ.!.x.V.E.2X2X2XqX6XeXJXX.y 7 u { r a  .X.",
"+ O o N 0X9X1.-.-.+.8 * : k h r r ; + X 5 4XKXIXCXvXxXxXnXZXSXDX1X@.F $.Q.6X6XeX,.L x z z x x N U U J Y d d f s y  .3.>.",
", , O O I r.<.1.<.H 7 ; , h r ; * + + b ' N.F.-XZXcXcXcXcXnXFXFXSXsXa.A ^ 2X2XP 4 0 q c B F N 4 1 3 3 2 s f u > d X.X.X.",
"l j , O % { q.r.q.d : h h , = % + v :.3XlXuXG.D.|.xXcXBXVXMXBXBXZXPXlXQ B D V 1 0 L 6X9XqXeX7X,.D c 2 * * * > :  .X.>.o.",
"j j j = % > { y.3.s < g g , = * 0 7XkXtX-XCXvXD.mXmXmXmXcXBXBXVXZXSXAX5XR 1 1 C 9XeXpX~.I.~.,XpXqX0X;.i & ; u J X.X.o.| ",
"j h h h = O = { k , < g < % * & :.yXgX<XOX|.(.CX-XuXDXSXFXBXMXMXGXZXSXAXa.z L eXaXaX~.,X~.XX~.,XjXjX6X6.} V J ..o.o.} } ",
"h h j h , % O O , < g l < X ; 6.qX7XrX$X<X<XuXDXPXlXlXAXZXBXMXMXVXBXFX-Xa.k.kXkX~.R.~.,X,X,X XR.rX6X6XeX0X8...8.>.| K J ",
"= % = t h h = % O < < @ @ e ] 8.qXyX7XiXkXkXyXZ.W M i.G.vXnXMXMXMXcXBXmXM.n.iX&XpXpXgXgX>XT.a.~ F A ! ,.0Xe.>.H i V H | ",
"r r : s , , < , % < < o e ] JXHXJXHXKXqXN.W m z W i.m.1XZXBXcXcXMXcXnXCX-X1XkXrXT.M.d.a.Q W M n E T B A +.0.;.C 2 w N V ",
"o.a * & , , % O O O X O $ ] t.JX7.[ G 5 $ $ M i.yXuXAXZXvXcXcXcXnXmXzX-X@X*XtXM.a.a.i.i.g.C.uXkXyXC.&.B q D ;.6.;.;.U c ",
"8X>.a ; % % O O * O O O X X + 0 1 o o $ m N.fXAXCXCXCXvXmXnXnXZXZXDX@XS.C.m.M.a.d.c.b./.=XuXsXfXgXkXrXs.F B +.9.qX6X7.^ ",
"8XeXe.w X O 7 J }  .J 8 + X     . . $ ' hXAXCXOXvXvXvXbXFXFXmX(.h.g.f.M.W.tXrX*X1XCXvXvXvX<X$X[.$X>XiX&Xx.O.@.-.B.V.V.E.",
"9XwX6.w 9 5.y.wXr.wXe.0.5.] @   . $ U qXCXvXOXxXcXxXvXDXDXG.p.p.Q ) #.j.n.P.>X1XOXOXOXOX{.{.<X1XoX_.'.'.Y.H.H.J.L.J.P.I.",
"U.jX0XU U e.HX8X^.r.0XLXLXt.l o   e 0.KXkX.XOXvX<X[.F.G.h.p.p.h.#X#XR.z.j.j.z._.OX1XOXOX{._..X.X_._._.'.,X:X~.I.I.H.H.J.",
"7XE.&.O.B.9X6XU.6X8XHXHX5.* X X * 3.3.X.X.*.w.V.C.7X3Xf.h.F.DXuX*X1X'.'.#Xb.a.c.b.b.{.OXoXoXoX_.)._.+X*X#XR.H.l.L.R.^.U.",
"7Xx./ / x.!.Y.Y.9X8X9.Z 9 * ; ; p  .{ p r 6 V J P D F ) C.uXF.h.[.;X].'.<X<X`.`.`.c.c.b./.].oX_.oX.X$XT.T.T.I.,XL.J.+.( ",
"-.$./ %.Y.P.H.Y.I.=.H i 8 I q.y. .{ { X.q.q.q.6.H C @.W.fX=XS.[./..X'.K.].>X$X$X$Xm.c.n.v.+X;X;X.X'.R.rXrX!.I.L.O.K V N ",
"/ $.j.Y.P.H.H.I.-.$.$.1.8Xw.q.q.X.} } X.e.r.w.+.P $.7XpX*Xc.M.$X.X.X.X].;X;X#X&XW.W.iXC.#.) s.B.l.j.j.E.9XE.$.L H L ^ ;.",
"O.J.Q.Y.Y.H.L.L.L.1.L.^.~.<.1.*.1.} q.r.r.1.| K -.Q.aXP.j.v.K.A.).).)..X#X+XW.W.rXjXjXV.L D O.&.$.$.^ O.+.@.^ K | +.,.w.",
"U.Q.Q.J.J.I.L.H.L.L.J.-.1.^.^.1.{ a >.r.>.J J *.8XpX~.=.s.'.1X'.).K.'.#X#XR.aX9X7X6X9.^ B K 7.9.-.-.+.O.^ | *.-.-.,.,.9.",
"B.Y.U.J.J.L.H.H.l.L.I.^.1.L.1.*.>.} >.o.i J *.8XU.^.J.=.j.P. X'.;X;X*Xn.%.E.aX6XL K C N i P 9.9.>.-.>.>.6.>.9.w.2X,.>.>.",
"$.=.J.Q.Q.J.=.U.J.J.1.J.1.1.,.w.>.} ..i 6 *.^.J.9XJ.=.l.~.#XP.P.T.%Xn.S x ! $.C V K .... .;.q.9.8.>.>.6.9.e.9.8.>.6.>.>.",
"-.$.+.$.E.U.7XB.,.V.2X6Xe.7.9.9.6.5.y O | -.<.U.-.,.=.Q.9XP.~.:XrXf.F x 5 q C P >.8.9.e.>.J i 8 J ..8.3.8.2.I 6.2.;...K ",
"<.=.-.=.U.6X0X2X0X0.7.0.7.6.7.t.t.t.i 3 ;.<.6X8X-.U.,.7X7XB.Y.U./ ) :.:.:.:.;.P ;.>.X.X.} a u 6 ; 7 u 8 i 6 O + I 2.;.| ",
"U.U.-.P K B N 0 q 1 + o o o + 3 ] ] w * ..9.6X6X*.V.,.:.:.$.=.&.E :.3X2X2X0X9.P 8 8 8 i a J J a 8 u 8 8 i 7 X   0 I 6.>.",
"B.U.U.C c q q 3 1 + o o X X   X X * * o P ,.,.V.:.2X&.F L O.$.$.3X3X2X( ^ 7.8...P J J } o.>.>.8.2. .I  .3.] + X + Y 6.9."
};
