/* XPM */
static char *_ee96d0dfda84707ab5e6e33dd23fd7eIuNKcKlIUD0P8VAt[] = {
/* columns rows colors chars-per-pixel */
"70 65 253 2 ",
"   c #18040D",
".  c #0B170C",
"X  c #161A0D",
"o  c #060B13",
"O  c #1A0713",
"+  c #091713",
"@  c #161A13",
"#  c #0B070B",
"$  c #23040D",
"%  c #28080E",
"&  c #230513",
"*  c #240B14",
"=  c #2C0C14",
"-  c #2C0C1A",
";  c #2A0614",
":  c #320C15",
">  c #340E19",
",  c #380D17",
"<  c #281514",
"1  c #341319",
"2  c #3C131B",
"3  c #3C1A1B",
"4  c #341517",
"5  c #17270D",
"6  c #1D350C",
"7  c #192712",
"8  c #1D3513",
"9  c #25390E",
"0  c #262813",
"q  c #38261A",
"w  c #283813",
"e  c #373814",
"r  c #282A0E",
"t  c #3D2922",
"y  c #41151C",
"u  c #431B1C",
"i  c #4A1C1D",
"p  c #441517",
"a  c #531D1E",
"s  c #410F19",
"d  c #48261D",
"f  c #54211E",
"g  c #45361C",
"h  c #45360F",
"j  c #441520",
"k  c #4C1C22",
"l  c #461821",
"z  c #521E23",
"x  c #581D26",
"c  c #4C2322",
"v  c #482823",
"b  c #542324",
"n  c #5B2524",
"m  c #542B25",
"M  c #5C2B26",
"N  c #5C2429",
"B  c #5D2C2A",
"V  c #552829",
"C  c #5A3529",
"Z  c #573730",
"A  c #642B25",
"S  c #642C2A",
"D  c #6A2D2C",
"F  c #642729",
"G  c #64332B",
"H  c #6C332C",
"J  c #6B3A2E",
"K  c #643928",
"L  c #72342D",
"P  c #76392D",
"I  c #6B3B32",
"U  c #683731",
"Y  c #733532",
"T  c #753B32",
"R  c #7B3C33",
"E  c #7B3735",
"W  c #6B2B30",
"Q  c #29470B",
"!  c #36560D",
"~  c #2B4513",
"^  c #374813",
"/  c #395413",
"(  c #334E0E",
")  c #3A660D",
"_  c #1E4413",
"`  c #464718",
"'  c #445815",
"]  c #53521B",
"[  c #486715",
"{  c #556A16",
"}  c #567A15",
"|  c #4A740C",
" . c #677E1A",
".. c #5A4F27",
"X. c #78412E",
"o. c #694536",
"O. c #754335",
"+. c #7C4235",
"@. c #7C443A",
"#. c #784A3A",
"$. c #714F35",
"%. c #6C7524",
"&. c #5D6121",
"*. c #794D42",
"=. c #7D5144",
"-. c #785946",
";. c #7C624E",
":. c #823D35",
">. c #834335",
",. c #83453A",
"<. c #854A3C",
"1. c #8C4C3C",
"2. c #8A4638",
"3. c #924D3D",
"4. c #944D37",
"5. c #8C523D",
"6. c #84533D",
"7. c #94533D",
"8. c #9A563E",
"9. c #84472D",
"0. c #A25D3E",
"q. c #894E41",
"w. c #835445",
"e. c #8A5845",
"r. c #945442",
"t. c #9A5543",
"y. c #955B44",
"u. c #9B5B44",
"i. c #9A5B4A",
"p. c #954D41",
"a. c #A35C45",
"s. c #A45D4A",
"d. c #A75B45",
"f. c #89654D",
"g. c #9D634A",
"h. c #96644B",
"j. c #896852",
"k. c #926651",
"l. c #946A54",
"z. c #996B56",
"x. c #99775B",
"c. c #8F7B5D",
"v. c #A46245",
"b. c #A4644A",
"n. c #AA644B",
"m. c #A46A4D",
"M. c #AB6A4C",
"N. c #AB6445",
"B. c #B26C4C",
"V. c #B5724C",
"C. c #A96C52",
"Z. c #B36D52",
"A. c #AC7354",
"S. c #A8775A",
"D. c #B47454",
"F. c #B47956",
"G. c #B5765A",
"H. c #B57B59",
"J. c #BB7C5A",
"K. c #BA7856",
"L. c #987A63",
"P. c #A77D63",
"I. c #BC7F62",
"U. c #C27D59",
"Y. c #598414",
"T. c #5A9211",
"R. c #668816",
"E. c #689616",
"W. c #749B18",
"Q. c #69960E",
"!. c #77A616",
"~. c #7DB416",
"^. c #68A114",
"/. c #6F9120",
"(. c #7BC015",
"). c #86B819",
"_. c #86AE18",
"`. c #839A28",
"'. c #94CE17",
"]. c #A6D91D",
"[. c #9DE416",
"{. c #B1EE1B",
"}. c #99C823",
"|. c #B4EA22",
" X c #A8D324",
".X c #CBF926",
"XX c #BD825D",
"oX c #B8865D",
"OX c #9E8268",
"+X c #AC866B",
"@X c #AA876A",
"#X c #B28D6D",
"$X c #BB8664",
"%X c #B7916D",
"&X c #B48E71",
"*X c #B29173",
"=X c #BB9C7B",
"-X c #B99877",
";X c #AC8C71",
":X c #BDA17E",
">X c #C2845D",
",X c #C8895D",
"<X c #D08F5D",
"1X c #C38561",
"2X c #C48A63",
"3X c #CA8D64",
"4X c #C98D68",
"5X c #CB9265",
"6X c #CB946A",
"7X c #CE9A6C",
"8X c #C79268",
"9X c #D1946A",
"0X c #D29C6D",
"qX c #D49666",
"wX c #CC9C73",
"eX c #C39B76",
"rX c #D39E72",
"tX c #D99E72",
"yX c #D08F67",
"uX c #D4A16E",
"iX c #DBA46F",
"pX c #CAA47B",
"aX c #D5A272",
"sX c #D9A573",
"dX c #DDAB75",
"fX c #DDAC7A",
"gX c #D4A77A",
"hX c #DEB07B",
"jX c #E1AD75",
"kX c #E1AE7A",
"lX c #E3A773",
"zX c #E4B37B",
"xX c #EBBA7E",
"cX c #E6B57A",
"vX c #F2BC7E",
"bX c #BEA181",
"nX c #C9AA84",
"mX c #D6AE82",
"MX c #D5B184",
"NX c #DBB588",
"BX c #EBBC83",
"VX c #E6BA86",
"CX c #F5B981",
"ZX c #D09C84",
"AX c #E5C08B",
"SX c #EDC38C",
"DX c #ECC086",
"FX c #F3C589",
"GX c #ECC693",
"HX c #F2C993",
"JX c #F8D297",
"KX c #FAD9A2",
"LX c #DEC293",
/* pixels */
"nX-X-X-XpXL.q ).|.^ E. .Z L.nX-X-X=X#Xo.-X-X=X=X=X=X:X=XbXnX:XbX:XbX:X=X=X-X=X:X=X=X=X-X=X@Xj.-.=X#X*X*X=X=X=X=X=XpXx.o.nX-X=X-X=X#XZ *XnX+X",
"KXzXfXsX6Xh.= r | ^ T.] M $XsXD.XXgXrX-.8XK.5XyX5XfXVXzXzXrX2X1X>X>X>X2X5X9X6X3X5X1XXX3X5XA.l.l.3XXX>XXX>X3X3X>X1XsXA.o.xX2XD.3XfX0X#.kXSX%X",
"$Xu.u.D.Z.@.e ~.9   X W M m 5.u.2X9XK.#.1XM.J.D.G.D.n.n.B.B.XX>X>X2XG.a.M.J.3X1X>XJ.M.G.G.y.e.e.J.n.D.D.B.v.u.8.a.u.O.3 +.5.b.9X3XK.G v.2XS.",
"z.u.<.T 1.,.r | 9 Y.}.$.G <.C.1.<.+.i Z G.3.a.u.a.s.a.a.n.n.u.t.t.a.a.3.p.E S D P b.n.8.7.1.6.e.n.7.t.3.p.t.r.r.1.2.5.m n.r.<.1.T i c D.7X%X",
"+XI J y Y n 1 j 1 ) ~.{ l H R T M N N C <.2 D D n a D L P P L H H L b Y :.:.R R :.L 2 M J M M O.R S D D D Y E Y Y Y S c :.E L M S N c u.G.S.",
"Z.Y = k N u u N x < X 4 3 u N D F S N d H 1 3 N k y N N N N N N F n : N F F S S b l 1 D Y V = G Y x N N b b b N b b k 2 z F F N S N 4 D r.q.",
"2 = * - - - * & 1 - ; = O * - - - - - * 2 = & > = = > : = : : = : *   & = = > - - - * - - -   1 1 ; > > - - - - - - - * - - = - ; - * - 2 l ",
"/ Q.w 5 9 + @ ~ o + 8 + _ + 5 6 o 8 7 ~ [ 1 D B B B B B B B B B B B S G u f & 9 ~ o 7 ! 7 o ~ r 7 | r < Q 5 + + 0 | ~ X Q | | + ! ( o 7 + @ ",
"R.].8 W.'.8 ~ | ' [ 7 w Y.9 _._.7 7 @ E.~.u d.n.s.n.n.s.a.d.s.n.n.n.n.1.M u n d ^ ~ ^ !.^ 7 [ } [ (.d g ! @ / ! w ].W.o R.{.E.7 '.[ 7 ( 7 8 ",
"w w . } R.@ o 8 ]. X7 0 7 ' .X).} & 3 0 ~ d Z.K.XXK.K.G.G.F.K.G.G.K.b.@.u Y Z.E { [ + 8 ).W.w 0 0 q T u.2.b W.'.X ^ ^ 7 [ }.w 7 w [ ).0 E.^ ",
"7 7 E.5 O w ( + [ Y.@ O ^ [ R.E. .y m x D S U.1X>XJ.J.K.K.J.J.J.K.K.K.U.S t.D.Z.t ( 5 / ]._.} s E 2.D.J.U.,.' { * : 1 w < 0 @ 5 ' _.|.e R.' ",
"& 0 ( * & ^ ( @ 5 7 @ ! w X 0 / 0 S f G I V T T O.O.@.@.@.@.@.@.@.@.@.O.c U O.@.v E.w w ) [ r V @.O.@.@.I M k : u a 2 c L   ~ @ w !.E.0 # @ ",
"3 4 = = = O . E.).w . < d i > * A A <.gXgXgXgXgXgXgXpXwXwXmXMXMXMXMXMXMXNXMXMXNXx.q G d . < R 8XpXwXpXgXgX7XXX1X+.R 7.b i 2 0 9 # w 6 * = 3 ",
"D.5.n.H 5.J Q E._.8 Q.] t.B.R i f +.1X6X6X6X9X6X9X0X9X5X9XVXDXBXBXBXVXHXHXBXBXDXBX3X,XZ.G 1.,X3X3X5X0X0X0X8XwXrX1XT f i A F g / 4 2 3 i T Z.",
"0X7.U.3.C.<.r 0 O 9 [.&.g.XXH.A.F.6X7X0X0X0X0X0XrXfXcXcXcXdXdXdXdXdXfXaXfXjXdXdX6X0X5X5X0X0XsXsXdXcXzXcXsX7X7X6X2X$XC.m.5.T M b u +.A i Z.G.",
"A.r.Z.i.<.c O @ r ^ 5 g Z.1X2X8X7X8X8XJ.5X0X0X0X7X0X7X7X0X0X0XuX0X7XaXaXuX0X0X0X6X6X5X6X0X0X0X0X0X0X0X0X7X7X0X8X8X8X8X8X>XD.A.n.f O.A ,.D.b.",
"r.<.y.D.S 1 { ' 9 Y.b d.,XoX3X3X3X5X5X2X2X3X8X6X6X6X6X6X6X6X4X5X5X5X3X6X6X6X9X6X7X7X7X6X8X6X6X6X6X6X6X6X4X4X5X6X5X5X2X3X2X2X>Xu.P H i 5.M.<.",
"r.y.T b.M Y ^ } O < M 1.>.J J T M.D.D.H.H.G.G.G.G.D.G.D.D.D.D.D.G.D.D.G.G.D.J.K.F.A.A.G.G.G.G.G.G.G.G.G.K.K.K.D.A.A.m.n.<.J P b = V T <.<.+.",
"r.g.H T O.2.1 X 4 a S G n a u +.C.S.S.P.H.q.<.q.q.5.5.,.<.q.q.q.q.q.@.<.<.<.<.<.<.H D R >.>.1.<.q.<.,.q.P.S.S.S.S.S.S.e.i b b V c 2.U <.+.+.",
"u.y.T M 1.>.i >.D.oXA.m.F.wXVXNXNXNXNXMXmXmXpXpXpXpXpXpXpXpXpXpXpXpXmXmXMXMXMXMXmXmXAXeXeXLXNXgXmXMXMXmXmXMXMXMXNXNXmXwX7XaXS.U #.S V 7.b.u.",
"K.5.>.1.T A C 3X0X7X0X0XkXVXzXxXkXsXsX0X9X9X5X5X5X3X3X5XaXaXsXsXaXsXBXxXdXkXjXkX0X3XdXkXzXVXkXiXcXxXcXdXjXjXjXdXBXxXzX6X6X7X6X@.u b b u.b.u.",
",Xr.P v.b H H >X3X3X2XwX6X3X3X0XsXaXsXsXsXsXkXhXhXzXzXzX0X0X0X0X7X0X1X1X6X7X7X7X7X8X5X5X5X5X5X6XrX6X6X7X8X6X6X6X3X3XuXaX$X2X1X5.H P R D.u.P ",
"8.A.1.>.R i b 8.>XH.G.H.H.H.H.H.H.H.F.F.F.F.F.F.F.XX6X2X2X2X3X>XD.H.XXXXoX8X5X6X7X8X8X6X6X6X1X,X2XF.K.K.F.D.G.K.H.H.H.H.G.H.H.G , m 7.M.Y J ",
"+.b.M.n ,.O.* p f <.h.k.k.k.k.k.l.k.l.l.l.l.l.k.l.k.k.l.l.f.f.f.f.l.#.=.l.f.k.f.f.k.k.k.k.k.k.l.k.l.l.l.z.z.l.l.k.k.k.k.k.h.w.u 4 T t.1.n S ",
"<.<.K.J @.q.M A f fXGXSXSXSXVXSXSXVXVXVXVXVXVXSXSXSXSXsX0XSXSXSXSXHXH.P.HXVXBXBXBXVXVXBXBXVXVXDXDXVXVXBXxXxXBXBXGXGXHXGXGXHXVXO.u A.u.<.>.<.",
"u.<.R M.5.y.p A D.aXaXsXdXjXhXhXdX0X3X5X3X3X,XaXaXsXdX5X5XjXfXdXsXdXm.m.tX6X0XuXsXgXsXsXuX0X5XaXsXuXsXdXgXdXgXdXzXzXdXdXaXaX0XU.d 6.n.T +.Z.",
"J <.S r.t.<.b $XwX7X2X3XiXdXdXfXdXdXdXuX0X0X5X3X5X6X5XsXjXdXdXdXaXsXS.A.dXaXdXsXgX0X5X5X5X5X7X9X5X3X3X2X0XsX6X5X5X5XdX0X2XwXeX6XI ; 1.E R 1.",
"b S D D 1.b c G.$X$X$XXXXXXXJ.J.J.XX6X0XsXaXsXsXaXrXsXsXiXsXaXaXrXdXA.A.kXsXsXsXsXsXsXsXjXsXrXsXsXaXaX0X0X2XJ.J.K.J.1XXX$X$X$X1XO.l V T H b ",
"m k u u b 2 u :.8.t.d.d.a.s.s.s.b.n.b.n.n.M.m.M.v.u.M.M.M.M.b.b.v.M.T @.n.b.b.b.b.b.b.b.Z.v.t.n.M.M.M.n.n.C.n.n.b.v.a.s.u.7.3.t.M y 2 i l u ",
"4 4 = * - = J S e.w.w.w.w.w.w.=.=.w.w.w.=.=.*.*.*.#.#.#.#.*.=.=.=.w.m I e.w.=.=.#.#.*.*.*.=.=.*.*.*.=.=.=.=.=.=.=.=.=.=.w.w.w.@.c 4 < = 1 4 ",
"B i E V u q.u <.wXeXeXaXfXfXVXAXAXVXVXVXVXAXVXGXJXVXVXGXGXAXVXAXNXVXA.S.VXfXVXVXAXGXKXGXNXmXmXNXAXAXAXAXAXAXVXAXSXVXhXaXeX8X7XA.d %XV H r.J ",
"T u T S #.H.= A.2X1X2X2X3X,X7XaXaXaXaXsXaXsXsXzXcXzXzXzXzXkXsXuXsXfXm.S.fXsXuX0X7X7XrXfXsXsX5X0XuXaXaXuXaXaXaXaXaX7X1X2X$X2X1XJ.C 2Xw.J u.5.",
"R u.m.I 6.y.M J.1X1X1X1X6X0X6X8X7X8X8X6X7X5X5XuX0XaXdXfXaXhXuX5XaXBXS.A.cXdXzXkXsX0X6X7X7XaXaX0X8X7X7X8X8X6X8X7X7X7X6X1XH.J.J.J.C A.g.H u.B.",
"2 $ u B.r.p J Z.D.U.,X>X1X1X1X2X2X2X2X2X2X2X1X1X1XJ.2X4X1X2X3X3X1X2Xy.g.9X2X6X0X0XtXtX0X9X2X1X1X2X2X2X2X1X1X1X1X1X1X1X1X1X>XU.J.B M U.M M.5.",
"L > & p Z.b , ..g Y R ,.@.+.@.+.+.+.+.R ,.,.+.+.R R E E R R E E E E z S R E E E E E E E T R R R R +.P S R E +.>.>.@.+.,.@.@.@.p.B $ N.X.v.G ",
"K h ..4 P 2.` {. .*.#X+X#X#X&X#X*X#X*X#XP.P.P.-X*X*X*X*X*X*X*X*X*X*X;X*X*X*X*X*X#X&X&X*X*X*X*X*X*X*X;X@X+X+X+X+X+X+X#XL.+X%Xk.V b : t.X.4.b ",
"'.'.'.` y &.].|.R.W 3X9XtXzXBXFXxXBXBXBXDXSXSXHXDXxXxXBXBXBXBXBXBXxXFXBXcXxXxXxXsX0XsXiXdXzXxXBXBXBXxXdXdXdXdXjXjXcX$X&.`.H.9X@.d B E 8.H b ",
"].'.} ^ * ^ Y.} / ` &.C.2XsXgXaX7X7X7X7X7X7X7X5X8X8X5X8X8X8X8X8X7X7XaXVXVXdXdXdXdXdXdXdXsXaX7X7X7X7X7X0XrX0X0X7X0X0Xw.W.{.`.D.Z.S f 1.>.u <.",
"^ T.w W.{ e 6 7 R.].` D.>X1Xu.G.2X1X2X2X2X2X2X0XaXaXaXrXaXaXaX0X2X2XJ.3XBXsXaXaXaXaXaXaXdXsX4X2X2X2X2X2X2X2X$XXX$X2X$._._.!.o.s.G K.X.4 <.@.",
"y O W.~./ |.`.6 !./ q o.y.8.A r.A.A.A.A.g.7.M.H.XXH.D.H.H.H.H.F.m.m.oXH.u.y.g.m.m.m.b.b.b.m.C.A.A.b.r.t.b.A.u.C.H.H.o.[ ( ( ^ g M.5.  B i.+.",
"T r ( + ( _.W.+ o ~ T.4 F i J #X#X+X+X+X+X+X+X+XP.#X-X&X+X+X+X+X*X-Xe.k.-X&X&X#X&X#X-X-X&X#X+X@X+X+X+X+X+X+X&XOXj.z.*.r w 7 T.%.u.% V R E T ",
"7.d ' / @ 6 5 } W.7 < ` h >.5XjXzXdXjXjXfXfXzXzXdXDXGXwX2XVXJXSXaXjXm.A.jXrXVXJXhX6XgXGXSXVXxXkXxXjXkXkXjXdXxXc.R.}.&.' ].' . O.i 1 r.C i u.",
"r.` !.( 7 9 5 ~..X .` ~.` A.aXwXrXrXaXwXaX7X6XsXuXuX0X0X0XuXsXuX5XsXm.m.6X5XsXgX7X7X7X0XaXsXsXaXsXgXaXaXwXwXaXw.W.|.~.w / 6 = u.$ m Z.m G Z.",
"a.g X O ~ ( @ Q ^.Y.X 5 Y 1XA.H.2X8XS.h.6X5X2X2X3X7XdXdXXX1X3X2XgXVXz.H.sX7XsX0X5X6X2X1X1X1XXXXXoX2X2X8Xw.$X2Xm.e !.} 8 # < N.G & O.Z.m G t.",
"U.R y z 4 * *   . 0 C S H u.b J 3X,Xr.@.3XyX9X5X6X6XyX6X2X6X9X2X3X9Xy.g.2XK.5X9X0X0X9X5X2X2X3X3XyX3X3XF.H C.2XG.S e ~ # m V.A : b +.Z.G i R ",
"b.<.J >.= O c O.8.P P M : I G z J C m B @.@.@.@.@.@.@.@.<.@.@.@.@.@.V U <.@.@.@.+.@.<.<.@.R @.@.@.@.@.I c O.U [ ] , % G U.H   L M 1.C.i f 3.",
"H M M P #.oX<XN.M = n y.o.n.G e W.~...e.nXnXnXnXpXeXeXeXeXeX=XeXeXeXpXpXpXnXnXnXNXnXeXeXpXnXnXnXnXnXnX=Xo.nX-X' Q 1 u.N.x 0 e b J v.T : +.i.",
"B m P U.,X0.f   = p R +.4.d.> } {.!.o.y.BXVXBXBXBXkXzXkXzXzXkXkXkXzXcXcXcXjXuX0XfXFXVXkXzXBXBXBXBXBXBXsX@.jXXXF c K.4.D & R.'.4 F 7.u c s.i.",
"d.a.7.P , % < 3 A G g.0.4.i   ( } e H w.J.K.J.>X1X2X2X1XI.2X2X1X1X2X1XK.oX5X0X1XK.1X1X1X>X>X>XXXJ.J.J.J.@.1.P L B.R A b $ / } 0 g g = J r.Y ",
"2 2 = = #.F.K.v.b.V.8.f c 5.O.< 7 e H <.U.XXXXA.J.6X3X3XZ.3XyXyX4X3X3X>XXX1X5X3X>X>X3X3X5XXXXX>X>XXXJ.G.H R H v.4.F u X !.{ 7 ).'.w u H H V ",
"9.9.X.L 4.A : % : % # 3 7.L p   6 ! 2 C ..<.p.&.] <.t.1.P r.r.3.t.r.u.r.u.i.i.s.r.5.u.y.y.q.q.r.t.t.t.1.c 2 A H > $   O Q Q 5 | Q   = $ $ % ",
"@XS.S.x.L.o.q -.Z Z f.e.#.#.#.m d d B } [.{ &..XY.m #.L.L.L.x.@X-.e.I l.i e { 4 I x.U w.h.5.6.y.I C m O.u $.j.-.Z -.o.v -.-.;.c.;.#.3 j.L.;.",
"JXkXsXVXVXh.=.kX$XmXqX<X<XCXS.,.G.oXg.q | ! E.'.e yXoX7XkXkXkXxXS.8X*.ZX] [.'.< k.VX#XkX>X5X<XCX6.r.1.g.#.oXdXFXA.rXoXo.aXFXjXXX0XF.J cXJXwX",
"8Xb.M.D.K.<.#.K.T 8XG.b.D.m.f >.>Xh.v.g } { w 9 r C :.N.M.D.V.a.>.$.} %.0 ) 0 1 7.M.@.9XM.v.K.g.S d.T A.#.D.V.<.u.r.m.I >Xv.P >X5X5.m n.3XS.",
"S.r.u.3.t.T J 7.H t.K.a.1.i 2.b.a.M 2.0 E.'.0 ' |.}...,.a.N.M.1.r.C ) T.w ~.g 2 >.4.H r.D.v.r.2 p.>.J n.m 3.>.2.>.u.5.B 4.A u.n.S R M b.7X%X",
"z.H P H L M 2 2.<.M t.a.R M 3.s.M A M < ~ 5 + w Y.E.w D H S b V H C ^ @ ~ ).Y.2 M >.7.M 1.a.+.m 3.M t.S u N >.>.H V M 1 S 3.3.b B n 3 0.A.S.",
"D.R D D Y b u :.F B n R H = T P k D c !.!.w Y.[ # O y D ` { d W v E.} [ }.~ q Y M D D H b E D 2 S R H b u M n D n b N = 2.H D n D B 3 L b.i.",
"a : : ; ; $ = : * =   , : = > $ $ ; X Q . 0 [.R.2 * : ; R.{.R.:   5 . 5 | Q       ; * 2 & > 2 I = y   $   = = > = :   O = $ ; = ; = * % p k ",
"OXL.L.L.L.-.  u m 4 I I 3 w.j.j.j.c.j.v m $ ^ q P 4 C Z [ Q.Q...x.OXv $ = J $.-.-.f.v f u $ u H.Z o.*.@X$.= C m v o.K q f.j.j.e.L.f.v c.@Xj.",
"KXBXkXzXiXg.o.m.5.$X1XX.O.vXDXFXFX7XV.#.J.A $ +.G , ] '.[ 5 9 C qX5Xo.S.K.qXvXCXFXdXg.1X$X3 a.A.C.oXfXlXH.b X.H.S.$Xy.$.FXBXzXzX7XD.o.xXJXeX",
"sXXXXX>XD.I e.lXI g.y.6XM R v.b.u.v.1.M v.b.G n.y.B o.| T.O = 2.7.A v S.K.F.M.b.M.M.O.C.$X#.9Xe.A.+.D.n.M t.q.g.b.,.A.c 8.M.M.g.g.1.m n.2XC.",
"H.8.2.7.t.O.z a.m.T O.3XU <.n.u.n.<.@.M H n.<.2.b.@.a.& O 3 u D P A.v J B.v.n.M.u.t.+.:.L T 1Xw.@.5.3.r.u d.+.@.i.1.M m n.v.u.M.+.@.m V.aXeX",
"z.<.1.i E E n F 1.n G 3.b G R R P S 1.b b 3.H N @.B 3.b 2 L D 1.H 1.c 4 ,.t.2.1.1.2.2.R i b a.H B T S b 2 Y H N H 3.H c R @.,.H D p.m u.F.S.",
"XXG 1 u N j u z S 2 k N u l l : b N z 2 l F b i S 2 F l u S k F N N l @.z y x N N k k D i y R i b F 2 y & c E l z Y c 2 x , y N F z 4 E s.y.",
"L b * 2 l 1 1 1 2 2 1 l : 2 l 2 l j j = > j 1 - 2 = l 2 = 2 2 j , l 1 l k = l l j 2 > l 2 = k : > 2 = y   2 y > > l 2 = k u l y y y = l D G "
};
